<svg xmlns="http://www.w3.org/2000/svg" xmlns:xlink="http://www.w3.org/1999/xlink" zoomAndPan="magnify" preserveAspectRatio="xMidYMid meet" version="1.0" viewBox="169.81 261.2 944.07 169.29"><defs><g/><clipPath id="a59a4ad15d"><path d="M 237 418 L 282 418 L 282 430.457031 L 237 430.457031 Z M 237 418 " clip-rule="nonzero"/></clipPath><clipPath id="948421e3ac"><path d="M 206 261.199219 L 264 261.199219 L 264 320 L 206 320 Z M 206 261.199219 " clip-rule="nonzero"/></clipPath><clipPath id="fd9c8f9afc"><path d="M 169.8125 299 L 224 299 L 224 353 L 169.8125 353 Z M 169.8125 299 " clip-rule="nonzero"/></clipPath><clipPath id="770b292e32"><path d="M 296 300 L 348.800781 300 L 348.800781 353 L 296 353 Z M 296 300 " clip-rule="nonzero"/></clipPath></defs><g clip-path="url(#a59a4ad15d)"><path fill="#bdbcbd" d="M 259.332031 430.484375 C 247.183594 430.484375 237.339844 427.851562 237.339844 424.605469 C 237.339844 421.355469 247.183594 418.722656 259.332031 418.722656 C 271.476562 418.722656 281.324219 421.355469 281.324219 424.605469 C 281.324219 427.851562 271.476562 430.484375 259.332031 430.484375 " fill-opacity="1" fill-rule="nonzero"/></g><path fill="#54c5bb" d="M 288.113281 320 C 276.648438 320 266.8125 313.09375 262.558594 303.222656 C 264.378906 299.398438 265.402344 295.125 265.402344 290.609375 C 265.402344 286.769531 264.664062 283.101562 263.320312 279.742188 C 267.914062 270.746094 277.289062 264.582031 288.113281 264.582031 C 303.464844 264.582031 315.914062 276.992188 315.914062 292.292969 C 315.914062 295.726562 315.285156 299.019531 314.140625 302.054688 C 306.53125 304.652344 300.507812 310.65625 297.898438 318.238281 C 294.855469 319.378906 291.554688 320 288.113281 320 " fill-opacity="1" fill-rule="nonzero"/><path fill="#ffffff" d="M 277.164062 290.019531 C 278.769531 290.019531 280.070312 291.316406 280.070312 292.917969 C 280.070312 294.519531 278.769531 295.8125 277.164062 295.8125 C 275.558594 295.8125 274.257812 294.519531 274.257812 292.917969 C 274.257812 291.316406 275.558594 290.019531 277.164062 290.019531 " fill-opacity="1" fill-rule="nonzero"/><path fill="#ffffff" d="M 289.695312 292.042969 C 290.679688 291.933594 291.292969 292.355469 291.292969 295.113281 C 291.292969 296.855469 290.765625 296.964844 289.945312 296.992188 C 287.152344 297.082031 282.789062 296.992188 282.292969 296.992188 C 281.144531 296.992188 280.25 295.707031 280.25 293.539062 C 280.25 291.007812 283.046875 291.265625 283.183594 291.265625 C 283.714844 291.265625 288.390625 292.195312 289.695312 292.042969 " fill-opacity="1" fill-rule="nonzero"/><path fill="#ffffff" d="M 271.640625 303.117188 C 271.640625 303.777344 271.101562 304.316406 270.4375 304.316406 C 269.777344 304.316406 269.238281 303.777344 269.238281 303.117188 L 269.238281 286.773438 C 269.238281 286.113281 269.777344 285.578125 270.4375 285.578125 C 271.101562 285.578125 271.640625 286.113281 271.640625 286.773438 L 271.640625 303.117188 " fill-opacity="1" fill-rule="nonzero"/><path fill="#ffffff" d="M 307.832031 303.117188 C 307.832031 303.777344 307.296875 304.316406 306.632812 304.316406 C 305.96875 304.316406 305.429688 303.777344 305.429688 303.117188 L 305.429688 294.398438 C 305.429688 293.738281 305.96875 293.203125 306.632812 293.203125 C 307.296875 293.203125 307.832031 293.738281 307.832031 294.398438 L 307.832031 303.117188 " fill-opacity="1" fill-rule="nonzero"/><path fill="#ffffff" d="M 307.414062 298.902344 C 307.414062 299.621094 306.847656 300.203125 306.140625 300.203125 L 271.292969 300.203125 C 270.589844 300.203125 270.023438 299.621094 270.023438 298.902344 C 270.023438 298.183594 270.589844 297.601562 271.292969 297.601562 L 306.140625 297.601562 C 306.847656 297.601562 307.414062 298.183594 307.414062 298.902344 " fill-opacity="1" fill-rule="nonzero"/><path fill="#ffffff" d="M 279.109375 296.011719 C 279.109375 296.601562 278.699219 297.082031 278.195312 297.082031 L 273.335938 297.082031 C 272.832031 297.082031 272.421875 296.601562 272.421875 296.011719 C 272.421875 295.425781 272.832031 294.945312 273.335938 294.945312 L 278.195312 294.945312 C 278.699219 294.945312 279.109375 295.425781 279.109375 296.011719 " fill-opacity="1" fill-rule="nonzero"/><path fill="#ffffff" d="M 303.238281 293.203125 C 303.238281 291.351562 285.742188 290.882812 285.742188 290.882812 L 285.742188 301.347656 L 303.238281 301.347656 C 303.238281 301.347656 303.238281 295.050781 303.238281 293.203125 " fill-opacity="1" fill-rule="nonzero"/><path fill="#ffffff" d="M 284.644531 295.761719 C 283.6875 295.761719 282.675781 295.570312 281.636719 295.109375 C 280.925781 294.792969 280.605469 293.964844 280.925781 293.253906 C 281.242188 292.542969 282.074219 292.226562 282.789062 292.542969 C 286.203125 294.0625 288.933594 290.902344 289.046875 290.765625 C 289.546875 290.171875 290.433594 290.09375 291.03125 290.589844 C 291.625 291.089844 291.710938 291.96875 291.214844 292.566406 C 290.128906 293.867188 287.65625 295.761719 284.644531 295.761719 " fill-opacity="1" fill-rule="nonzero"/><path fill="#ffffff" d="M 279.511719 286.242188 L 280.601562 282.175781 L 278.507812 282.894531 L 278.304688 282.316406 L 281.574219 281.195312 L 280.484375 285.257812 L 282.695312 284.5 L 282.898438 285.078125 L 279.511719 286.242188 " fill-opacity="1" fill-rule="nonzero"/><path fill="#ffffff" d="M 284.070312 281.664062 L 285.910156 274.78125 L 282.367188 275.996094 L 282.027344 275.015625 L 287.558594 273.113281 L 285.714844 279.996094 L 289.464844 278.710938 L 289.800781 279.695312 L 284.070312 281.664062 " fill-opacity="1" fill-rule="nonzero"/><path fill="#ffffff" d="M 292.417969 280.148438 L 294.75 271.441406 L 290.269531 272.984375 L 289.835938 271.738281 L 296.832031 269.335938 L 294.503906 278.039062 L 299.238281 276.410156 L 299.667969 277.65625 L 292.417969 280.148438 " fill-opacity="1" fill-rule="nonzero"/><g clip-path="url(#948421e3ac)"><path fill="#c13331" d="M 235.910156 320 C 230.957031 320 226.289062 318.785156 222.191406 316.632812 C 219.773438 310.054688 214.851562 304.683594 208.578125 301.664062 C 207.1875 298.25 206.421875 294.519531 206.421875 290.609375 C 206.421875 274.375 219.625 261.214844 235.910156 261.214844 C 248.347656 261.214844 258.984375 268.886719 263.320312 279.742188 C 261.394531 283.507812 260.308594 287.773438 260.308594 292.292969 C 260.308594 296.175781 261.109375 299.867188 262.558594 303.222656 C 257.820312 313.144531 247.671875 320 235.910156 320 " fill-opacity="1" fill-rule="nonzero"/></g><path fill="#5d3b3a" d="M 262.558594 303.222656 C 261.109375 299.867188 260.308594 296.175781 260.308594 292.292969 C 260.308594 287.773438 261.394531 283.507812 263.320312 279.742188 C 264.664062 283.101562 265.402344 286.769531 265.402344 290.609375 C 265.402344 295.125 264.378906 299.398438 262.558594 303.222656 " fill-opacity="1" fill-rule="nonzero"/><path fill="#ffffff" d="M 254.695312 288.605469 C 254.695312 297.835938 245.671875 315.75 236.40625 309.808594 C 229.074219 315.914062 218.117188 297.835938 218.117188 288.605469 C 218.117188 279.382812 221.824219 273.671875 236.40625 276.402344 C 251.152344 273.347656 254.695312 279.382812 254.695312 288.605469 " fill-opacity="1" fill-rule="nonzero"/><path fill="#ffffff" d="M 236.644531 276.976562 L 235.878906 276.976562 C 235.878906 276.976562 237.410156 272.679688 237.039062 269.425781 C 236.886719 268.542969 238.742188 267.980469 238.984375 268.460938 C 238.902344 272.839844 236.644531 276.976562 236.644531 276.976562 " fill-opacity="1" fill-rule="nonzero"/><path fill="#ffffff" d="M 245.828125 269.886719 C 245.828125 269.886719 244.992188 272.785156 242.746094 273.882812 C 240.5 274.980469 237.691406 273.867188 237.691406 273.867188 C 237.691406 273.867188 238.527344 270.972656 240.773438 269.871094 C 243.019531 268.773438 245.828125 269.886719 245.828125 269.886719 " fill-opacity="1" fill-rule="nonzero"/><path fill="#ffffff" d="M 237.214844 274.238281 C 237.214844 274.238281 234.847656 274.144531 233.589844 272.644531 C 232.328125 271.144531 232.65625 268.804688 232.65625 268.804688 C 232.65625 268.804688 235.023438 268.898438 236.28125 270.398438 C 237.539062 271.898438 237.214844 274.238281 237.214844 274.238281 " fill-opacity="1" fill-rule="nonzero"/><g clip-path="url(#fd9c8f9afc)"><path fill="#f68712" d="M 196.875 352.722656 C 181.992188 352.722656 169.929688 340.695312 169.929688 325.863281 C 169.929688 311.03125 181.992188 299.007812 196.875 299.007812 C 201.070312 299.007812 205.039062 299.960938 208.578125 301.664062 C 211.203125 308.109375 216.058594 313.414062 222.191406 316.632812 C 223.246094 319.511719 223.824219 322.621094 223.824219 325.863281 C 223.824219 340.695312 211.757812 352.722656 196.875 352.722656 " fill-opacity="1" fill-rule="nonzero"/></g><path fill="#c12a23" d="M 222.191406 316.632812 C 216.058594 313.414062 211.203125 308.109375 208.578125 301.664062 C 214.851562 304.683594 219.773438 310.054688 222.191406 316.632812 " fill-opacity="1" fill-rule="nonzero"/><path fill="#ffffff" d="M 184.523438 323.484375 C 180.824219 323.484375 177.8125 326.484375 177.8125 330.167969 C 177.8125 333.855469 180.824219 336.855469 184.523438 336.855469 C 188.222656 336.855469 191.230469 333.855469 191.230469 330.167969 C 191.230469 326.484375 188.222656 323.484375 184.523438 323.484375 Z M 184.523438 338.125 C 180.121094 338.125 176.542969 334.554688 176.542969 330.167969 C 176.542969 325.785156 180.121094 322.214844 184.523438 322.214844 C 188.921875 322.214844 192.503906 325.785156 192.503906 330.167969 C 192.503906 334.554688 188.921875 338.125 184.523438 338.125 " fill-opacity="1" fill-rule="nonzero"/><path fill="#ffffff" d="M 184.523438 324.226562 C 181.234375 324.226562 178.554688 326.890625 178.554688 330.167969 C 178.554688 333.445312 181.234375 336.117188 184.523438 336.117188 C 187.8125 336.117188 190.488281 333.445312 190.488281 330.167969 C 190.488281 326.890625 187.8125 324.226562 184.523438 324.226562 Z M 184.523438 336.46875 C 181.039062 336.46875 178.203125 333.644531 178.203125 330.167969 C 178.203125 326.699219 181.039062 323.871094 184.523438 323.871094 C 188.007812 323.871094 190.84375 326.699219 190.84375 330.167969 C 190.84375 333.644531 188.007812 336.46875 184.523438 336.46875 " fill-opacity="1" fill-rule="nonzero"/><path fill="#ffffff" d="M 185.863281 330.167969 C 185.863281 330.910156 185.261719 331.507812 184.523438 331.507812 C 183.78125 331.507812 183.183594 330.910156 183.183594 330.167969 C 183.183594 329.433594 183.78125 328.835938 184.523438 328.835938 C 185.261719 328.835938 185.863281 329.433594 185.863281 330.167969 " fill-opacity="1" fill-rule="nonzero"/><path fill="#ffffff" d="M 198.453125 330.898438 C 198.453125 331.972656 197.578125 332.84375 196.503906 332.84375 C 195.425781 332.84375 194.550781 331.972656 194.550781 330.898438 C 194.550781 329.824219 195.425781 328.953125 196.503906 328.953125 C 197.578125 328.953125 198.453125 329.824219 198.453125 330.898438 " fill-opacity="1" fill-rule="nonzero"/><path fill="#ffffff" d="M 210.789062 322.777344 C 207.089844 322.777344 204.082031 325.777344 204.082031 329.464844 C 204.082031 333.152344 207.089844 336.152344 210.789062 336.152344 C 214.488281 336.152344 217.5 333.152344 217.5 329.464844 C 217.5 325.777344 214.488281 322.777344 210.789062 322.777344 Z M 210.789062 337.421875 C 206.390625 337.421875 202.8125 333.851562 202.8125 329.464844 C 202.8125 325.082031 206.390625 321.515625 210.789062 321.515625 C 215.191406 321.515625 218.769531 325.082031 218.769531 329.464844 C 218.769531 333.851562 215.191406 337.421875 210.789062 337.421875 " fill-opacity="1" fill-rule="nonzero"/><path fill="#ffffff" d="M 210.789062 323.519531 C 207.503906 323.519531 204.824219 326.1875 204.824219 329.464844 C 204.824219 332.746094 207.503906 335.410156 210.789062 335.410156 C 214.082031 335.410156 216.757812 332.746094 216.757812 329.464844 C 216.757812 326.1875 214.082031 323.519531 210.789062 323.519531 Z M 210.789062 335.765625 C 207.308594 335.765625 204.472656 332.941406 204.472656 329.464844 C 204.472656 325.992188 207.308594 323.167969 210.789062 323.167969 C 214.273438 323.167969 217.109375 325.992188 217.109375 329.464844 C 217.109375 332.941406 214.273438 335.765625 210.789062 335.765625 " fill-opacity="1" fill-rule="nonzero"/><path fill="#ffffff" d="M 212.132812 329.464844 C 212.132812 330.203125 211.53125 330.800781 210.789062 330.800781 C 210.050781 330.800781 209.449219 330.203125 209.449219 329.464844 C 209.449219 328.730469 210.050781 328.128906 210.789062 328.128906 C 211.53125 328.128906 212.132812 328.730469 212.132812 329.464844 " fill-opacity="1" fill-rule="nonzero"/><path fill="#ffffff" d="M 184.6875 330.300781 L 184.355469 330.039062 L 192.777344 319.339844 L 193.109375 319.601562 L 184.6875 330.300781 " fill-opacity="1" fill-rule="nonzero"/><path fill="#ffffff" d="M 196.300781 330.960938 L 190.460938 312.214844 L 190.867188 312.089844 L 196.703125 330.835938 L 196.300781 330.960938 " fill-opacity="1" fill-rule="nonzero"/><path fill="#ffffff" d="M 192.96875 319.683594 L 192.917969 319.261719 L 208.09375 317.433594 L 208.144531 317.851562 L 192.96875 319.683594 " fill-opacity="1" fill-rule="nonzero"/><path fill="#ffffff" d="M 196.648438 331.378906 L 196.351562 331.074219 L 208.382812 319.320312 L 208.679688 319.621094 L 196.648438 331.378906 " fill-opacity="1" fill-rule="nonzero"/><path fill="#ffffff" d="M 210.585938 329.511719 L 207.050781 313.886719 L 207.46875 313.796875 L 210.996094 329.421875 L 210.585938 329.511719 " fill-opacity="1" fill-rule="nonzero"/><path fill="#ffffff" d="M 196.480469 331.4375 L 184.503906 330.382812 L 184.539062 329.960938 L 196.519531 331.015625 L 196.480469 331.4375 " fill-opacity="1" fill-rule="nonzero"/><path fill="#ffffff" d="M 194.523438 312.40625 C 194.523438 312.40625 194.121094 312.507812 193.507812 312.625 C 193.203125 312.683594 192.847656 312.75 192.46875 312.804688 C 192.277344 312.835938 192.082031 312.871094 191.882812 312.890625 C 191.683594 312.914062 191.480469 312.941406 191.28125 312.964844 C 190.875 313.003906 190.464844 313.164062 190.089844 313.152344 C 189.902344 313.148438 189.722656 313.109375 189.550781 313.046875 C 189.382812 312.992188 189.222656 312.921875 189.078125 312.84375 C 188.929688 312.765625 188.796875 312.679688 188.679688 312.59375 C 188.5625 312.507812 188.460938 312.410156 188.378906 312.335938 C 188.292969 312.253906 188.230469 312.183594 188.183594 312.128906 C 188.140625 312.074219 188.117188 312.046875 188.117188 312.046875 L 188.128906 311.835938 C 188.128906 311.835938 188.15625 311.8125 188.207031 311.757812 C 188.253906 311.710938 188.328125 311.648438 188.421875 311.578125 C 188.511719 311.507812 188.625 311.425781 188.75 311.355469 C 188.875 311.285156 189.019531 311.210938 189.171875 311.152344 C 189.328125 311.089844 189.492188 311.039062 189.667969 311 C 189.84375 310.960938 190.027344 310.941406 190.214844 310.957031 C 190.589844 310.988281 190.980469 311.195312 191.375 311.277344 C 191.574219 311.324219 191.773438 311.371094 191.96875 311.417969 C 192.164062 311.460938 192.355469 311.515625 192.539062 311.566406 C 192.910156 311.664062 193.257812 311.773438 193.550781 311.863281 C 194.144531 312.046875 194.539062 312.195312 194.539062 312.195312 L 194.523438 312.40625 " fill-opacity="1" fill-rule="nonzero"/><path fill="#ffffff" d="M 199.585938 328.289062 C 199.585938 328.289062 199.402344 328.328125 199.117188 328.375 C 198.980469 328.398438 198.816406 328.421875 198.640625 328.445312 C 198.464844 328.472656 198.277344 328.484375 198.09375 328.507812 C 197.902344 328.519531 197.714844 328.582031 197.539062 328.578125 C 197.367188 328.574219 197.207031 328.511719 197.074219 328.449219 C 196.9375 328.378906 196.828125 328.304688 196.75 328.234375 C 196.671875 328.167969 196.628906 328.117188 196.628906 328.117188 L 196.632812 328.03125 C 196.632812 328.03125 196.683594 327.980469 196.769531 327.925781 C 196.851562 327.867188 196.972656 327.804688 197.113281 327.753906 C 197.257812 327.703125 197.421875 327.664062 197.59375 327.675781 C 197.765625 327.695312 197.949219 327.777344 198.128906 327.8125 C 198.316406 327.855469 198.496094 327.890625 198.667969 327.9375 C 198.839844 327.980469 199 328.023438 199.136719 328.0625 C 199.410156 328.140625 199.59375 328.203125 199.59375 328.203125 L 199.585938 328.289062 " fill-opacity="1" fill-rule="nonzero"/><path fill="#ffffff" d="M 196.898438 334.175781 C 196.898438 334.175781 196.710938 334.21875 196.429688 334.265625 C 196.289062 334.285156 196.125 334.3125 195.949219 334.335938 C 195.773438 334.363281 195.585938 334.378906 195.402344 334.394531 C 195.214844 334.410156 195.023438 334.472656 194.851562 334.46875 C 194.679688 334.460938 194.519531 334.402344 194.382812 334.339844 C 194.25 334.269531 194.136719 334.195312 194.058594 334.125 C 193.980469 334.058594 193.9375 334.003906 193.9375 334.003906 L 193.941406 333.917969 C 193.941406 333.917969 193.992188 333.871094 194.078125 333.816406 C 194.160156 333.753906 194.28125 333.695312 194.421875 333.640625 C 194.566406 333.59375 194.730469 333.554688 194.90625 333.566406 C 195.078125 333.582031 195.257812 333.664062 195.441406 333.703125 C 195.625 333.742188 195.808594 333.78125 195.976562 333.824219 C 196.148438 333.867188 196.308594 333.914062 196.445312 333.953125 C 196.722656 334.03125 196.902344 334.089844 196.902344 334.089844 L 196.898438 334.175781 " fill-opacity="1" fill-rule="nonzero"/><path fill="#ffffff" d="M 209.945312 316.957031 C 209.851562 316.957031 209.761719 316.894531 209.738281 316.796875 C 209.707031 316.6875 209.777344 316.570312 209.890625 316.539062 C 211.230469 316.1875 212.21875 315.273438 212.527344 314.082031 C 212.71875 313.359375 212.601562 312.679688 212.21875 312.316406 C 211.917969 312.03125 211.476562 311.964844 210.941406 312.125 C 210.308594 312.316406 209.730469 312.472656 209.167969 312.621094 C 208.691406 312.746094 208.242188 312.867188 207.8125 312.996094 C 207.355469 313.128906 207.371094 313.414062 207.507812 313.980469 L 207.535156 314.105469 C 207.5625 314.21875 207.492188 314.332031 207.378906 314.355469 C 207.261719 314.382812 207.148438 314.3125 207.125 314.195312 L 207.09375 314.078125 C 206.992188 313.652344 206.800781 312.855469 207.6875 312.589844 C 208.125 312.460938 208.578125 312.339844 209.058594 312.210938 C 209.617188 312.066406 210.191406 311.910156 210.820312 311.722656 C 211.5 311.515625 212.101562 311.621094 212.511719 312.011719 C 213.003906 312.484375 213.167969 313.316406 212.9375 314.191406 C 212.589844 315.527344 211.488281 316.5625 209.996094 316.949219 L 209.945312 316.957031 " fill-opacity="1" fill-rule="nonzero"/><path fill="#ffffff" d="M 195.421875 334.261719 L 195.347656 334.246094 C 195.238281 334.207031 195.183594 334.085938 195.222656 333.972656 L 197.445312 328.054688 C 197.484375 327.949219 197.605469 327.890625 197.71875 327.933594 C 197.828125 327.972656 197.882812 328.09375 197.839844 328.203125 L 195.617188 334.125 C 195.585938 334.207031 195.507812 334.261719 195.421875 334.261719 " fill-opacity="1" fill-rule="nonzero"/><g clip-path="url(#770b292e32)"><path fill="#a675c1" d="M 322.609375 352.722656 C 308.183594 352.722656 296.492188 341.066406 296.492188 326.6875 C 296.492188 323.730469 296.988281 320.886719 297.898438 318.238281 C 305.378906 315.433594 311.324219 309.507812 314.140625 302.054688 C 316.796875 301.148438 319.644531 300.65625 322.609375 300.65625 C 337.039062 300.65625 348.730469 312.3125 348.730469 326.6875 C 348.730469 341.066406 337.039062 352.722656 322.609375 352.722656 " fill-opacity="1" fill-rule="nonzero"/></g><path fill="#487098" d="M 297.898438 318.238281 C 300.507812 310.65625 306.53125 304.652344 314.140625 302.054688 C 311.324219 309.507812 305.378906 315.433594 297.898438 318.238281 " fill-opacity="1" fill-rule="nonzero"/><path fill="#ffffff" d="M 322.9375 326.527344 L 323.46875 326.527344 L 324.613281 324.5 L 325.410156 326.320312 L 326.824219 325.164062 L 327.335938 326.34375 L 328.953125 325.1875 L 330.171875 328.105469 L 330.574219 326.527344 L 333.132812 326.527344 L 335.496094 322.289062 L 336.546875 327.347656 L 337.421875 322.894531 L 338.332031 326.527344 L 340.003906 326.527344 C 340.460938 325.300781 340.722656 324.058594 340.722656 322.820312 C 340.722656 317.597656 336.476562 313.363281 331.234375 313.363281 C 325.996094 313.363281 322.613281 319.152344 322.613281 319.152344 L 322.601562 319.132812 L 322.9375 326.527344 " fill-opacity="1" fill-rule="nonzero"/><path fill="#ffffff" d="M 309.179688 326.527344 L 311.484375 322.734375 L 312.664062 326.527344 L 316.761719 326.527344 L 316.761719 326.867188 L 317.332031 326.527344 L 318.921875 326.527344 L 320.53125 320.410156 L 320.855469 327.242188 L 322.484375 318.945312 C 321.824219 317.917969 318.636719 313.363281 313.988281 313.363281 C 308.746094 313.363281 304.5 317.597656 304.5 322.820312 C 304.5 324.058594 304.761719 325.300781 305.21875 326.527344 L 309.179688 326.527344 " fill-opacity="1" fill-rule="nonzero"/><path fill="#ffffff" d="M 337.796875 327.207031 L 337.503906 326.027344 L 336.566406 330.800781 L 335.199219 324.222656 L 333.535156 327.207031 L 331.105469 327.207031 L 330.328125 330.25 L 328.652344 326.242188 L 327.046875 327.390625 L 326.558594 326.265625 L 325.148438 327.417969 L 324.535156 326.027344 L 323.867188 327.207031 L 322.285156 327.207031 L 322.148438 324.207031 L 320.441406 332.914062 L 320.058594 324.894531 L 319.449219 327.207031 L 317.519531 327.207031 L 316.078125 328.074219 L 316.078125 327.207031 L 312.160156 327.207031 L 311.285156 324.382812 L 309.5625 327.207031 L 305.492188 327.207031 C 309.277344 335.957031 322.613281 343.738281 322.613281 343.738281 C 322.613281 343.738281 335.945312 335.957031 339.730469 327.207031 L 337.796875 327.207031 " fill-opacity="1" fill-rule="nonzero"/><path fill="#c13331" d="M 284.414062 336.792969 C 269.171875 336.792969 259.332031 353.628906 259.332031 353.628906 C 259.332031 353.628906 249.488281 336.792969 234.246094 336.792969 C 219.003906 336.792969 206.648438 349.105469 206.648438 364.300781 C 206.648438 394.414062 259.332031 425.148438 259.332031 425.148438 C 259.332031 425.148438 312.011719 394.414062 312.011719 364.300781 C 312.011719 349.105469 299.65625 336.792969 284.414062 336.792969 " fill-opacity="1" fill-rule="nonzero"/><path fill="#aa2c2a" d="M 310.71875 355.957031 C 309.472656 363.441406 307.089844 370.730469 303.496094 377.488281 C 296.214844 391.191406 283.921875 405.269531 268.125 408.863281 C 262.191406 410.210938 254.652344 411.210938 248.890625 408.644531 C 244.878906 406.859375 241.136719 404.429688 237.390625 402.164062 C 235.96875 401.304688 225.320312 394.425781 218.113281 390.824219 C 233.609375 410.140625 259.332031 425.148438 259.332031 425.148438 C 259.332031 425.148438 312.011719 394.414062 312.011719 364.300781 C 312.011719 361.390625 311.554688 358.589844 310.71875 355.957031 " fill-opacity="1" fill-rule="nonzero"/><path fill="#c13c3b" d="M 263.488281 350.238281 C 265.527344 349.300781 267.542969 348.296875 269.550781 347.300781 C 275.035156 344.59375 280.089844 341.136719 286.210938 340.042969 C 291.257812 339.140625 296.730469 340.269531 301.492188 342.710938 C 296.792969 339.011719 290.867188 336.792969 284.414062 336.792969 C 273.007812 336.792969 264.628906 346.21875 261.132812 350.964844 C 261.847656 350.867188 262.628906 350.632812 263.488281 350.238281 " fill-opacity="1" fill-rule="nonzero"/><path fill="#c13c3b" d="M 253.839844 346.796875 C 254.609375 347.640625 255.332031 348.425781 256.070312 349.089844 C 251.988281 344.105469 244.292969 336.792969 234.246094 336.792969 C 226.820312 336.792969 220.085938 339.71875 215.125 344.472656 C 215.796875 344.289062 225.429688 340.730469 234.195312 340.851562 C 243.539062 340.976562 252.074219 344.84375 253.839844 346.796875 " fill-opacity="1" fill-rule="nonzero"/><path fill="#ffffff" d="M 204.121094 376.574219 L 221.09375 376.574219 L 226.523438 367.640625 L 229.292969 376.574219 L 240.820312 376.574219 L 240.820312 378.703125 L 244.382812 376.574219 L 249.757812 376.574219 L 252.25 367.078125 L 253.316406 389.546875 L 258.289062 364.179688 L 258.855469 376.574219 L 262.695312 376.574219 L 264.984375 372.515625 L 266.898438 376.878906 L 271 373.519531 L 272.445312 376.839844 L 277.121094 373.488281 L 281.664062 384.351562 L 283.65625 376.574219 L 290.816406 376.574219 L 296.164062 366.976562 L 299.910156 385.011719 L 302.589844 371.351562 L 303.902344 376.574219 L 314.539062 376.574219 L 314.539062 375.582031 L 304.679688 375.582031 L 302.472656 366.792969 L 299.882812 379.988281 L 296.597656 364.160156 L 290.230469 375.582031 L 282.886719 375.582031 L 281.4375 381.230469 L 277.558594 371.953125 L 272.867188 375.316406 L 271.386719 371.921875 L 267.285156 375.28125 L 265.097656 370.292969 L 262.117188 375.582031 L 259.804688 375.582031 L 258.90625 355.867188 L 253.921875 381.292969 L 252.9375 360.558594 L 248.988281 375.582031 L 244.109375 375.582031 L 241.816406 376.953125 L 241.816406 375.582031 L 230.027344 375.582031 L 226.820312 365.242188 L 220.535156 375.582031 L 204.121094 375.582031 L 204.121094 376.574219 " fill-opacity="1" fill-rule="nonzero"/><path stroke-linecap="butt" transform="matrix(0.587988, 0, 0, 0.587988, 373.088956, 291.611867)" fill="none" stroke-linejoin="miter" d="M 95.959073 143.99854 L 70.435052 143.99854 L 29.245846 72.362539 L 28.661225 72.362539 C 29.478366 85.018254 29.890258 94.040019 29.890258 99.44112 L 29.890258 143.99854 L 11.94638 143.99854 L 11.94638 49.303227 L 37.271098 49.303227 L 78.400513 120.228382 L 78.858909 120.228382 C 78.207854 107.924767 77.882326 99.221887 77.882326 94.126384 L 77.882326 49.303227 L 95.959073 49.303227 Z M 117.390747 52.870744 C 117.390747 46.433269 120.97155 43.217854 128.139801 43.217854 C 135.308051 43.217854 138.888855 46.433269 138.888855 52.870744 C 138.888855 55.93336 137.998636 58.318348 136.204913 60.025707 C 134.411189 61.733066 131.720604 62.583424 128.139801 62.583424 C 120.97155 62.583424 117.390747 59.348078 117.390747 52.870744 Z M 137.985349 143.99854 L 118.227818 143.99854 L 118.227818 71.585259 L 137.985349 71.585259 Z M 221.732305 71.585259 L 221.732305 81.623467 L 210.39863 84.539928 C 212.464734 87.781917 213.501108 91.409225 213.501108 95.42185 C 213.501108 103.194652 210.797236 109.253451 205.376205 113.591605 C 199.955174 117.929758 192.434822 120.102157 182.801863 120.102157 L 179.240989 119.902854 L 176.324528 119.58397 C 174.298285 121.13853 173.281841 122.86582 173.281841 124.765838 C 173.281841 127.615865 176.909149 129.037557 184.163764 129.037557 L 196.467378 129.037557 C 204.412909 129.037557 210.471708 130.744916 214.637133 134.152991 C 218.802557 137.567709 220.888591 142.576848 220.888591 149.180407 C 220.888591 157.644125 217.360935 164.207824 210.298979 168.871505 C 203.237023 173.535186 193.099164 175.867027 179.885401 175.867027 C 169.787402 175.867027 162.067748 174.10652 156.733081 170.585507 C 151.398415 167.071138 148.734403 162.135077 148.734403 155.790611 C 148.734403 151.425883 150.096305 147.778646 152.813463 144.842254 C 155.537266 141.905862 159.529961 139.813185 164.798194 138.557578 C 162.765307 137.693934 160.998157 136.278885 159.483457 134.319076 C 157.975401 132.352624 157.218051 130.26659 157.218051 128.067618 C 157.218051 125.303955 158.015262 123.005331 159.616326 121.165104 C 161.210747 119.33152 163.522657 117.531153 166.545413 115.75736 C 162.745377 114.116435 159.735907 111.485641 157.510362 107.858333 C 155.284816 104.231026 154.175365 99.959307 154.175365 95.036532 C 154.175365 87.130862 156.746368 81.018915 161.881732 76.700692 C 167.023739 72.382469 174.358075 70.223357 183.90467 70.223357 C 185.930914 70.223357 188.342475 70.409373 191.126068 70.774761 C 193.909661 71.146793 195.690098 71.41253 196.467378 71.585259 Z M 165.834567 154.23605 C 165.834567 156.953209 167.136678 159.09239 169.754185 160.646951 C 172.365049 162.201511 176.025574 162.978791 180.729115 162.978791 C 187.811002 162.978791 193.358257 162.008852 197.377527 160.06233 C 201.390153 158.122451 203.403109 155.465083 203.403109 152.096869 C 203.403109 149.373067 202.213937 147.499622 199.835592 146.463248 C 197.463891 145.426875 193.79008 144.908688 188.827445 144.908688 L 178.589934 144.908688 C 174.962627 144.908688 171.933227 145.759046 169.495092 147.466405 C 167.050313 149.173764 165.834567 151.425883 165.834567 154.23605 Z M 173.022748 95.295625 C 173.022748 99.221887 173.91961 102.331008 175.713333 104.616344 C 177.500413 106.908324 180.230859 108.050992 183.90467 108.050992 C 187.618342 108.050992 190.335501 106.908324 192.06279 104.616344 C 193.79008 102.331008 194.653724 99.221887 194.653724 95.295625 C 194.653724 86.572815 191.072921 82.208088 183.90467 82.208088 C 176.650055 82.208088 173.022748 86.572815 173.022748 95.295625 Z M 300.483409 143.99854 L 280.732521 143.99854 L 280.732521 101.706526 C 280.732521 91.256426 276.84612 86.028054 269.073318 86.028054 C 263.545993 86.028054 259.553297 87.908142 257.088588 91.668318 C 254.630523 95.42185 253.394846 101.507223 253.394846 109.93108 L 253.394846 143.99854 L 233.643958 143.99854 L 233.643958 43.217854 L 253.394846 43.217854 L 253.394846 63.746023 C 253.394846 65.347087 253.248691 69.100619 252.943094 75.019907 L 252.491341 80.846186 L 253.527715 80.846186 C 257.932303 73.7643 264.927824 70.223357 274.51428 70.223357 C 283.017857 70.223357 289.475262 72.515337 293.87985 77.092654 C 298.284437 81.669971 300.483409 88.23367 300.483409 96.783752 Z M 351.325505 129.555744 C 354.780083 129.555744 358.925578 128.798394 363.761988 127.290338 L 363.761988 141.992227 C 358.839213 144.191199 352.793701 145.294006 345.62545 145.294006 C 337.71978 145.294006 331.966578 143.30098 328.365844 139.301641 C 324.758467 135.308946 322.9581 129.316581 322.9581 121.33119 L 322.9581 86.420016 L 313.49787 86.420016 L 313.49787 78.062593 L 324.379792 71.459034 L 330.079847 56.172523 L 342.708989 56.172523 L 342.708989 71.585259 L 362.984707 71.585259 L 362.984707 86.420016 L 342.708989 86.420016 L 342.708989 121.33119 C 342.708989 124.134713 343.499556 126.20746 345.074046 127.549431 C 346.648537 128.884758 348.734571 129.555744 351.325505 129.555744 Z M 408.904028 129.555744 C 412.358607 129.555744 416.504101 128.798394 421.340511 127.290338 L 421.340511 141.992227 C 416.417737 144.191199 410.372224 145.294006 403.203974 145.294006 C 395.298304 145.294006 389.545102 143.30098 385.937724 139.301641 C 382.336991 135.308946 380.52998 129.316581 380.52998 121.33119 L 380.52998 86.420016 L 371.076393 86.420016 L 371.076393 78.062593 L 381.958316 71.459034 L 387.65837 56.172523 L 400.287512 56.172523 L 400.287512 71.585259 L 420.563231 71.585259 L 420.563231 86.420016 L 400.287512 86.420016 L 400.287512 121.33119 C 400.287512 124.134713 401.078079 126.20746 402.65257 127.549431 C 404.22706 128.884758 406.313094 129.555744 408.904028 129.555744 Z M 435.132252 52.870744 C 435.132252 46.433269 438.713055 43.217854 445.881306 43.217854 C 453.049556 43.217854 456.63036 46.433269 456.63036 52.870744 C 456.63036 55.93336 455.740141 58.318348 453.946418 60.025707 C 452.152694 61.733066 449.462109 62.583424 445.881306 62.583424 C 438.713055 62.583424 435.132252 59.348078 435.132252 52.870744 Z M 455.726854 143.99854 L 435.969322 143.99854 L 435.969322 71.585259 L 455.726854 71.585259 Z M 541.287464 143.99854 L 521.529932 143.99854 L 521.529932 101.706526 C 521.529932 96.478154 520.653001 92.558536 518.905781 89.947672 C 517.158562 87.336808 514.408186 86.028054 510.64801 86.028054 C 505.59901 86.028054 501.925199 87.888212 499.639862 91.601884 C 497.347882 95.315556 496.205214 101.427502 496.205214 109.93108 L 496.205214 143.99854 L 476.447682 143.99854 L 476.447682 71.585259 L 491.541533 71.585259 L 494.198901 80.846186 L 495.301709 80.846186 C 497.241588 77.524476 500.045111 74.920256 503.718922 73.046811 C 507.38609 71.166723 511.598019 70.223357 516.348064 70.223357 C 527.190126 70.223357 534.524462 73.7643 538.371003 80.846186 L 540.118222 80.846186 C 542.064744 77.477972 544.921415 74.867108 548.701521 73.013594 C 552.481627 71.153436 556.746703 70.223357 561.496749 70.223357 C 569.701373 70.223357 575.906327 72.329322 580.118256 76.54125 C 584.323541 80.753179 586.429505 87.49625 586.429505 96.783752 L 586.429505 143.99854 L 566.612182 143.99854 L 566.612182 101.706526 C 566.612182 96.478154 565.735251 92.558536 563.988031 89.947672 C 562.240812 87.336808 559.483792 86.028054 555.73026 86.028054 C 550.89385 86.028054 547.279829 87.755343 544.881554 91.209922 C 542.48328 94.664501 541.287464 100.151966 541.287464 107.665674 Z M 636.680336 84.280835 C 632.494981 84.280835 629.213131 85.609519 626.834787 88.266887 C 624.463086 90.917612 623.101185 94.691074 622.755727 99.567345 L 650.47872 99.567345 C 650.392355 94.691074 649.116819 90.917612 646.658753 88.266887 C 644.194044 85.609519 640.872334 84.280835 636.680336 84.280835 Z M 639.470572 145.294006 C 627.81137 145.294006 618.696597 142.078591 612.132898 135.64776 C 605.569199 129.210286 602.287349 120.102157 602.287349 108.310086 C 602.287349 96.1792 605.323392 86.798691 611.388835 80.168558 C 617.454278 73.538424 625.844917 70.223357 636.554111 70.223357 C 646.784978 70.223357 654.757082 73.139819 660.457137 78.972742 C 666.150548 84.799021 669.000576 92.850847 669.000576 103.128218 L 669.000576 112.714673 L 622.303974 112.714673 C 622.523207 118.328364 624.184062 122.713021 627.293183 125.862002 C 630.402304 129.017627 634.760387 130.592117 640.374078 130.592117 C 644.738805 130.592117 648.857725 130.140365 652.744126 129.230216 C 656.630527 128.326711 660.689657 126.878445 664.921515 124.892063 L 664.921515 140.178573 C 661.466937 141.905862 657.779839 143.188042 653.846934 144.031757 C 649.920672 144.875471 645.124123 145.294006 639.470572 145.294006 Z M 741.14812 93.86729 L 747.758323 93.86729 C 753.93006 93.86729 758.553881 92.644901 761.616498 90.206766 C 764.685758 87.76863 766.213744 84.2144 766.213744 79.550719 C 766.213744 74.847178 764.931564 71.372669 762.360561 69.127193 C 759.7962 66.881717 755.763644 65.758979 750.282823 65.758979 L 741.14812 65.758979 Z M 786.489463 78.839873 C 786.489463 89.03088 783.307265 96.823612 776.936225 102.224713 C 770.565185 107.61917 761.510203 110.316399 749.764636 110.316399 L 741.14812 110.316399 L 741.14812 143.99854 L 721.071704 143.99854 L 721.071704 49.303227 L 751.319196 49.303227 C 762.80567 49.303227 771.535124 51.774579 777.520846 56.723927 C 783.499924 61.666632 786.489463 69.040829 786.489463 78.839873 Z M 843.224272 70.223357 C 845.901571 70.223357 848.120473 70.42266 849.894266 70.807978 L 848.40614 89.336478 C 846.805076 88.904655 844.865197 88.685422 842.573217 88.685422 C 836.268611 88.685422 831.359124 90.306417 827.838111 93.541763 C 824.317098 96.783752 822.563235 101.314564 822.563235 107.147487 L 822.563235 143.99854 L 802.805703 143.99854 L 802.805703 71.585259 L 817.766686 71.585259 L 820.683147 83.762648 L 821.653087 83.762648 C 823.898563 79.703518 826.934606 76.434955 830.754572 73.950316 C 834.574539 71.465677 838.73332 70.223357 843.224272 70.223357 Z M 878.779858 107.665674 C 878.779858 114.833925 879.955743 120.248312 882.307514 123.922123 C 884.659285 127.589291 888.492538 129.429519 893.807274 129.429519 C 899.068863 129.429519 902.862256 127.602578 905.174166 123.955341 C 907.479433 120.308103 908.635388 114.873785 908.635388 107.665674 C 908.635388 100.497424 907.47279 95.122897 905.140949 91.53545 C 902.809109 87.954646 898.982499 86.160923 893.674406 86.160923 C 888.406174 86.160923 884.606137 87.941359 882.274297 91.502233 C 879.942456 95.063106 878.779858 100.45092 878.779858 107.665674 Z M 928.844673 107.665674 C 928.844673 119.451102 925.735552 128.672169 919.517311 135.322233 C 913.299069 141.972296 904.642693 145.294006 893.548181 145.294006 C 886.59252 145.294006 880.460643 143.772663 875.15255 140.729977 C 869.837814 137.68729 865.758754 133.31592 862.908727 127.615865 C 860.058699 121.915811 858.630364 115.265747 858.630364 107.665674 C 858.630364 95.833743 861.719554 86.632605 867.897935 80.068906 C 874.069673 73.505207 882.752623 70.223357 893.933499 70.223357 C 900.882517 70.223357 907.014394 71.738057 912.32913 74.760813 C 917.637223 77.78357 921.722926 82.121723 924.572954 87.781917 C 927.422981 93.435468 928.844673 100.065601 928.844673 107.665674 Z M 975.667499 129.555744 C 979.122077 129.555744 983.267572 128.798394 988.103982 127.290338 L 988.103982 141.992227 C 983.181207 144.191199 977.135695 145.294006 969.967444 145.294006 C 962.068418 145.294006 956.315216 143.30098 952.707838 139.301641 C 949.100461 135.308946 947.300094 129.316581 947.300094 121.33119 L 947.300094 86.420016 L 937.839864 86.420016 L 937.839864 78.062593 L 948.721786 71.459034 L 954.421841 56.172523 L 967.050983 56.172523 L 967.050983 71.585259 L 987.326701 71.585259 L 987.326701 86.420016 L 967.050983 86.420016 L 967.050983 121.33119 C 967.050983 124.134713 967.84155 126.20746 969.41604 127.549431 C 970.997174 128.884758 973.076565 129.555744 975.667499 129.555744 Z M 1018.477699 107.665674 C 1018.477699 114.833925 1019.653585 120.248312 1022.005355 123.922123 C 1024.363769 127.589291 1028.19038 129.429519 1033.505116 129.429519 C 1038.773348 129.429519 1042.560098 127.602578 1044.872008 123.955341 C 1047.183918 120.308103 1048.33323 114.873785 1048.33323 107.665674 C 1048.33323 100.497424 1047.170631 95.122897 1044.838791 91.53545 C 1042.50695 87.954646 1038.686984 86.160923 1033.372247 86.160923 C 1028.104015 86.160923 1024.303979 87.941359 1021.972138 91.502233 C 1019.640298 95.063106 1018.477699 100.45092 1018.477699 107.665674 Z M 1068.542514 107.665674 C 1068.542514 119.451102 1065.433394 128.672169 1059.215152 135.322233 C 1052.996911 141.972296 1044.340534 145.294006 1033.246022 145.294006 C 1026.290361 145.294006 1020.158484 143.772663 1014.850392 140.729977 C 1009.542299 137.68729 1005.456595 133.31592 1002.606568 127.615865 C 999.756541 121.915811 998.334849 115.265747 998.334849 107.665674 C 998.334849 95.833743 1001.424039 86.632605 1007.595777 80.068906 C 1013.767514 73.505207 1022.450464 70.223357 1033.631341 70.223357 C 1040.587002 70.223357 1046.718879 71.738057 1052.026972 74.760813 C 1057.341708 77.78357 1061.420768 82.121723 1064.270795 87.781917 C 1067.120822 93.435468 1068.542514 100.065601 1068.542514 107.665674 Z M 1114.269176 145.294006 C 1091.728051 145.294006 1080.454167 132.923958 1080.454167 108.183861 C 1080.454167 95.873603 1083.523427 86.473163 1089.655304 79.975898 C 1095.787181 73.478633 1104.576426 70.223357 1116.016396 70.223357 C 1124.393749 70.223357 1131.907457 71.864282 1138.557521 75.146132 L 1132.724598 90.432642 C 1129.615477 89.183679 1126.725589 88.153949 1124.048291 87.356738 C 1121.370992 86.559528 1118.693694 86.160923 1116.016396 86.160923 C 1105.739024 86.160923 1100.603661 93.455398 1100.603661 108.050992 C 1100.603661 122.214764 1105.739024 129.29665 1116.016396 129.29665 C 1119.816432 129.29665 1123.337445 128.791751 1126.57279 127.775307 C 1129.81478 126.758864 1133.050125 125.171086 1136.292114 123.011975 L 1136.292114 139.919479 C 1133.096629 141.945723 1129.867927 143.354128 1126.606008 144.131408 C 1123.344088 144.908688 1119.231811 145.294006 1114.269176 145.294006 Z M 1168.79837 107.665674 C 1168.79837 114.833925 1169.974255 120.248312 1172.326026 123.922123 C 1174.68444 127.589291 1178.517694 129.429519 1183.825786 129.429519 C 1189.094019 129.429519 1192.880768 127.602578 1195.192678 123.955341 C 1197.504589 120.308103 1198.660544 114.873785 1198.660544 107.665674 C 1198.660544 100.497424 1197.491302 95.122897 1195.159461 91.53545 C 1192.827621 87.954646 1189.007654 86.160923 1183.699561 86.160923 C 1178.431329 86.160923 1174.631293 87.941359 1172.299452 91.502233 C 1169.967612 95.063106 1168.79837 100.45092 1168.79837 107.665674 Z M 1218.869828 107.665674 C 1218.869828 119.451102 1215.760708 128.672169 1209.542466 135.322233 C 1203.324225 141.972296 1194.661205 145.294006 1183.566693 145.294006 C 1176.617675 145.294006 1170.485798 143.772663 1165.171062 140.729977 C 1159.862969 137.68729 1155.777266 133.31592 1152.927239 127.615865 C 1150.077211 121.915811 1148.655519 115.265747 1148.655519 107.665674 C 1148.655519 95.833743 1151.74471 86.632605 1157.916447 80.068906 C 1164.094828 73.505207 1172.771135 70.223357 1183.952011 70.223357 C 1190.907672 70.223357 1197.039549 71.738057 1202.347642 74.760813 C 1207.662378 77.78357 1211.741438 82.121723 1214.591466 87.781917 C 1217.441493 93.435468 1218.869828 100.065601 1218.869828 107.665674 Z M 1254.936957 143.99854 L 1235.186069 143.99854 L 1235.186069 43.217854 L 1254.936957 43.217854 Z M 1254.936957 143.99854 " stroke="#00635a" stroke-width="5.803569" stroke-opacity="1" stroke-miterlimit="4"/><g fill="#54c5bb" fill-opacity="1"><g transform="translate(373.10733, 376.282109)"><g><path d="M 56.40625 0 L 41.40625 0 L 17.171875 -42.125 L 16.828125 -42.125 C 17.316406 -34.6875 17.5625 -29.378906 17.5625 -26.203125 L 17.5625 0 L 7.015625 0 L 7.015625 -55.6875 L 21.90625 -55.6875 L 46.078125 -13.984375 L 46.34375 -13.984375 C 45.96875 -21.210938 45.78125 -26.328125 45.78125 -29.328125 L 45.78125 -55.6875 L 56.40625 -55.6875 Z M 56.40625 0 "/></g></g></g><g fill="#54c5bb" fill-opacity="1"><g transform="translate(436.513159, 376.282109)"><g><path d="M 5.59375 -53.59375 C 5.59375 -57.375 7.703125 -59.265625 11.921875 -59.265625 C 16.140625 -59.265625 18.25 -57.375 18.25 -53.59375 C 18.25 -51.789062 17.71875 -50.382812 16.65625 -49.375 C 15.601562 -48.375 14.023438 -47.875 11.921875 -47.875 C 7.703125 -47.875 5.59375 -49.78125 5.59375 -53.59375 Z M 17.703125 0 L 6.09375 0 L 6.09375 -42.578125 L 17.703125 -42.578125 Z M 17.703125 0 "/></g></g></g><g fill="#54c5bb" fill-opacity="1"><g transform="translate(460.314148, 376.282109)"><g><path d="M 43.15625 -42.578125 L 43.15625 -36.671875 L 36.484375 -34.96875 C 37.703125 -33.0625 38.3125 -30.925781 38.3125 -28.5625 C 38.3125 -23.988281 36.71875 -20.425781 33.53125 -17.875 C 30.34375 -15.320312 25.921875 -14.046875 20.265625 -14.046875 L 18.171875 -14.171875 L 16.453125 -14.359375 C 15.253906 -13.441406 14.65625 -12.425781 14.65625 -11.3125 C 14.65625 -9.632812 16.789062 -8.796875 21.0625 -8.796875 L 28.296875 -8.796875 C 32.972656 -8.796875 36.535156 -7.789062 38.984375 -5.78125 C 41.429688 -3.78125 42.65625 -0.835938 42.65625 3.046875 C 42.65625 8.023438 40.578125 11.882812 36.421875 14.625 C 32.273438 17.363281 26.316406 18.734375 18.546875 18.734375 C 12.609375 18.734375 8.070312 17.695312 4.9375 15.625 C 1.800781 13.5625 0.234375 10.664062 0.234375 6.9375 C 0.234375 4.363281 1.03125 2.210938 2.625 0.484375 C 4.226562 -1.234375 6.578125 -2.460938 9.671875 -3.203125 C 8.484375 -3.710938 7.441406 -4.539062 6.546875 -5.6875 C 5.660156 -6.84375 5.21875 -8.070312 5.21875 -9.375 C 5.21875 -11 5.6875 -12.347656 6.625 -13.421875 C 7.5625 -14.503906 8.921875 -15.566406 10.703125 -16.609375 C 8.460938 -17.566406 6.6875 -19.113281 5.375 -21.25 C 4.070312 -23.382812 3.421875 -25.898438 3.421875 -28.796875 C 3.421875 -33.441406 4.929688 -37.03125 7.953125 -39.5625 C 10.984375 -42.101562 15.300781 -43.375 20.90625 -43.375 C 22.101562 -43.375 23.519531 -43.265625 25.15625 -43.046875 C 26.789062 -42.835938 27.835938 -42.679688 28.296875 -42.578125 Z M 10.28125 6.015625 C 10.28125 7.617188 11.046875 8.875 12.578125 9.78125 C 14.117188 10.695312 16.273438 11.15625 19.046875 11.15625 C 23.210938 11.15625 26.472656 10.582031 28.828125 9.4375 C 31.191406 8.300781 32.375 6.742188 32.375 4.765625 C 32.375 3.160156 31.675781 2.050781 30.28125 1.4375 C 28.882812 0.832031 26.722656 0.53125 23.796875 0.53125 L 17.78125 0.53125 C 15.65625 0.53125 13.875 1.03125 12.4375 2.03125 C 11 3.039062 10.28125 4.367188 10.28125 6.015625 Z M 14.515625 -28.640625 C 14.515625 -26.328125 15.039062 -24.5 16.09375 -23.15625 C 17.144531 -21.8125 18.75 -21.140625 20.90625 -21.140625 C 23.09375 -21.140625 24.691406 -21.8125 25.703125 -23.15625 C 26.722656 -24.5 27.234375 -26.328125 27.234375 -28.640625 C 27.234375 -33.765625 25.125 -36.328125 20.90625 -36.328125 C 16.644531 -36.328125 14.515625 -33.765625 14.515625 -28.640625 Z M 14.515625 -28.640625 "/></g></g></g><g fill="#54c5bb" fill-opacity="1"><g transform="translate(504.374536, 376.282109)"><g><path d="M 45.40625 0 L 33.78125 0 L 33.78125 -24.875 C 33.78125 -31.019531 31.492188 -34.09375 26.921875 -34.09375 C 23.671875 -34.09375 21.320312 -32.984375 19.875 -30.765625 C 18.425781 -28.554688 17.703125 -24.976562 17.703125 -20.03125 L 17.703125 0 L 6.09375 0 L 6.09375 -59.265625 L 17.703125 -59.265625 L 17.703125 -47.1875 C 17.703125 -46.25 17.613281 -44.039062 17.4375 -40.5625 L 17.171875 -37.140625 L 17.78125 -37.140625 C 20.375 -41.296875 24.488281 -43.375 30.125 -43.375 C 35.125 -43.375 38.921875 -42.03125 41.515625 -39.34375 C 44.109375 -36.65625 45.40625 -32.796875 45.40625 -27.765625 Z M 45.40625 0 "/></g></g></g><g fill="#54c5bb" fill-opacity="1"><g transform="translate(555.632338, 376.282109)"><g><path d="M 24.03125 -8.5 C 26.0625 -8.5 28.5 -8.941406 31.34375 -9.828125 L 31.34375 -1.1875 C 28.445312 0.113281 24.894531 0.765625 20.6875 0.765625 C 16.039062 0.765625 12.65625 -0.40625 10.53125 -2.75 C 8.40625 -5.101562 7.34375 -8.628906 7.34375 -13.328125 L 7.34375 -33.859375 L 1.796875 -33.859375 L 1.796875 -38.765625 L 8.1875 -42.65625 L 11.546875 -51.640625 L 18.96875 -51.640625 L 18.96875 -42.578125 L 30.890625 -42.578125 L 30.890625 -33.859375 L 18.96875 -33.859375 L 18.96875 -13.328125 C 18.96875 -11.679688 19.429688 -10.460938 20.359375 -9.671875 C 21.285156 -8.890625 22.507812 -8.5 24.03125 -8.5 Z M 24.03125 -8.5 "/></g></g></g><g fill="#54c5bb" fill-opacity="1"><g transform="translate(589.486873, 376.282109)"><g><path d="M 24.03125 -8.5 C 26.0625 -8.5 28.5 -8.941406 31.34375 -9.828125 L 31.34375 -1.1875 C 28.445312 0.113281 24.894531 0.765625 20.6875 0.765625 C 16.039062 0.765625 12.65625 -0.40625 10.53125 -2.75 C 8.40625 -5.101562 7.34375 -8.628906 7.34375 -13.328125 L 7.34375 -33.859375 L 1.796875 -33.859375 L 1.796875 -38.765625 L 8.1875 -42.65625 L 11.546875 -51.640625 L 18.96875 -51.640625 L 18.96875 -42.578125 L 30.890625 -42.578125 L 30.890625 -33.859375 L 18.96875 -33.859375 L 18.96875 -13.328125 C 18.96875 -11.679688 19.429688 -10.460938 20.359375 -9.671875 C 21.285156 -8.890625 22.507812 -8.5 24.03125 -8.5 Z M 24.03125 -8.5 "/></g></g></g><g fill="#54c5bb" fill-opacity="1"><g transform="translate(623.341389, 376.282109)"><g><path d="M 5.59375 -53.59375 C 5.59375 -57.375 7.703125 -59.265625 11.921875 -59.265625 C 16.140625 -59.265625 18.25 -57.375 18.25 -53.59375 C 18.25 -51.789062 17.71875 -50.382812 16.65625 -49.375 C 15.601562 -48.375 14.023438 -47.875 11.921875 -47.875 C 7.703125 -47.875 5.59375 -49.78125 5.59375 -53.59375 Z M 17.703125 0 L 6.09375 0 L 6.09375 -42.578125 L 17.703125 -42.578125 Z M 17.703125 0 "/></g></g></g><g fill="#54c5bb" fill-opacity="1"><g transform="translate(647.14237, 376.282109)"><g><path d="M 44.21875 0 L 32.609375 0 L 32.609375 -24.875 C 32.609375 -27.945312 32.09375 -30.25 31.0625 -31.78125 C 30.03125 -33.320312 28.410156 -34.09375 26.203125 -34.09375 C 23.234375 -34.09375 21.070312 -33 19.71875 -30.8125 C 18.375 -28.625 17.703125 -25.03125 17.703125 -20.03125 L 17.703125 0 L 6.09375 0 L 6.09375 -42.578125 L 14.96875 -42.578125 L 16.53125 -37.140625 L 17.171875 -37.140625 C 18.316406 -39.085938 19.96875 -40.613281 22.125 -41.71875 C 24.28125 -42.820312 26.757812 -43.375 29.5625 -43.375 C 35.925781 -43.375 40.238281 -41.296875 42.5 -37.140625 L 43.53125 -37.140625 C 44.675781 -39.117188 46.359375 -40.648438 48.578125 -41.734375 C 50.796875 -42.828125 53.300781 -43.375 56.09375 -43.375 C 60.925781 -43.375 64.578125 -42.132812 67.046875 -39.65625 C 69.523438 -37.1875 70.765625 -33.222656 70.765625 -27.765625 L 70.765625 0 L 59.109375 0 L 59.109375 -24.875 C 59.109375 -27.945312 58.59375 -30.25 57.5625 -31.78125 C 56.539062 -33.320312 54.925781 -34.09375 52.71875 -34.09375 C 49.875 -34.09375 47.742188 -33.078125 46.328125 -31.046875 C 44.921875 -29.015625 44.21875 -25.785156 44.21875 -21.359375 Z M 44.21875 0 "/></g></g></g><g fill="#54c5bb" fill-opacity="1"><g transform="translate(723.724406, 376.282109)"><g><path d="M 23.734375 -35.109375 C 21.265625 -35.109375 19.332031 -34.328125 17.9375 -32.765625 C 16.539062 -31.210938 15.742188 -29 15.546875 -26.125 L 31.84375 -26.125 C 31.789062 -29 31.039062 -31.210938 29.59375 -32.765625 C 28.144531 -34.328125 26.191406 -35.109375 23.734375 -35.109375 Z M 25.359375 0.765625 C 18.503906 0.765625 13.144531 -1.125 9.28125 -4.90625 C 5.425781 -8.695312 3.5 -14.054688 3.5 -20.984375 C 3.5 -28.117188 5.28125 -33.632812 8.84375 -37.53125 C 12.414062 -41.425781 17.351562 -43.375 23.65625 -43.375 C 29.664062 -43.375 34.347656 -41.660156 37.703125 -38.234375 C 41.054688 -34.804688 42.734375 -30.070312 42.734375 -24.03125 L 42.734375 -18.390625 L 15.265625 -18.390625 C 15.398438 -15.085938 16.378906 -12.507812 18.203125 -10.65625 C 20.035156 -8.8125 22.601562 -7.890625 25.90625 -7.890625 C 28.46875 -7.890625 30.890625 -8.15625 33.171875 -8.6875 C 35.453125 -9.21875 37.835938 -10.066406 40.328125 -11.234375 L 40.328125 -2.25 C 38.296875 -1.226562 36.125 -0.472656 33.8125 0.015625 C 31.507812 0.515625 28.691406 0.765625 25.359375 0.765625 Z M 25.359375 0.765625 "/></g></g></g><g fill="#54c5bb" fill-opacity="1"><g transform="translate(769.803104, 376.282109)"><g/></g></g><g fill="#54c5bb" fill-opacity="1"><g transform="translate(790.06252, 376.282109)"><g><path d="M 18.8125 -29.484375 L 22.703125 -29.484375 C 26.328125 -29.484375 29.039062 -30.195312 30.84375 -31.625 C 32.644531 -33.0625 33.546875 -35.148438 33.546875 -37.890625 C 33.546875 -40.660156 32.789062 -42.707031 31.28125 -44.03125 C 29.769531 -45.351562 27.40625 -46.015625 24.1875 -46.015625 L 18.8125 -46.015625 Z M 45.46875 -38.3125 C 45.46875 -32.320312 43.59375 -27.738281 39.84375 -24.5625 C 36.101562 -21.394531 30.78125 -19.8125 23.875 -19.8125 L 18.8125 -19.8125 L 18.8125 0 L 7.015625 0 L 7.015625 -55.6875 L 24.796875 -55.6875 C 31.546875 -55.6875 36.675781 -54.226562 40.1875 -51.3125 C 43.707031 -48.40625 45.46875 -44.070312 45.46875 -38.3125 Z M 45.46875 -38.3125 "/></g></g></g><g fill="#54c5bb" fill-opacity="1"><g transform="translate(839.035436, 376.282109)"><g><path d="M 29.859375 -43.375 C 31.429688 -43.375 32.738281 -43.257812 33.78125 -43.03125 L 32.90625 -32.140625 C 31.96875 -32.398438 30.828125 -32.53125 29.484375 -32.53125 C 25.773438 -32.53125 22.882812 -31.578125 20.8125 -29.671875 C 18.738281 -27.765625 17.703125 -25.097656 17.703125 -21.671875 L 17.703125 0 L 6.09375 0 L 6.09375 -42.578125 L 14.890625 -42.578125 L 16.609375 -35.421875 L 17.171875 -35.421875 C 18.492188 -37.804688 20.28125 -39.726562 22.53125 -41.1875 C 24.78125 -42.644531 27.222656 -43.375 29.859375 -43.375 Z M 29.859375 -43.375 "/></g></g></g><g fill="#54c5bb" fill-opacity="1"><g transform="translate(874.451293, 376.282109)"><g><path d="M 15.34375 -21.359375 C 15.34375 -17.148438 16.035156 -13.960938 17.421875 -11.796875 C 18.804688 -9.640625 21.0625 -8.5625 24.1875 -8.5625 C 27.28125 -8.5625 29.503906 -9.632812 30.859375 -11.78125 C 32.222656 -13.925781 32.90625 -17.117188 32.90625 -21.359375 C 32.90625 -25.578125 32.21875 -28.738281 30.84375 -30.84375 C 29.476562 -32.957031 27.234375 -34.015625 24.109375 -34.015625 C 21.015625 -34.015625 18.78125 -32.96875 17.40625 -30.875 C 16.03125 -28.78125 15.34375 -25.609375 15.34375 -21.359375 Z M 44.796875 -21.359375 C 44.796875 -14.429688 42.96875 -9.007812 39.3125 -5.09375 C 35.65625 -1.1875 30.5625 0.765625 24.03125 0.765625 C 19.945312 0.765625 16.34375 -0.128906 13.21875 -1.921875 C 10.09375 -3.710938 7.691406 -6.28125 6.015625 -9.625 C 4.335938 -12.976562 3.5 -16.890625 3.5 -21.359375 C 3.5 -28.316406 5.3125 -33.722656 8.9375 -37.578125 C 12.570312 -41.441406 17.679688 -43.375 24.265625 -43.375 C 28.347656 -43.375 31.953125 -42.484375 35.078125 -40.703125 C 38.203125 -38.929688 40.601562 -36.378906 42.28125 -33.046875 C 43.957031 -29.722656 44.796875 -25.828125 44.796875 -21.359375 Z M 44.796875 -21.359375 "/></g></g></g><g fill="#54c5bb" fill-opacity="1"><g transform="translate(922.738749, 376.282109)"><g><path d="M 24.03125 -8.5 C 26.0625 -8.5 28.5 -8.941406 31.34375 -9.828125 L 31.34375 -1.1875 C 28.445312 0.113281 24.894531 0.765625 20.6875 0.765625 C 16.039062 0.765625 12.65625 -0.40625 10.53125 -2.75 C 8.40625 -5.101562 7.34375 -8.628906 7.34375 -13.328125 L 7.34375 -33.859375 L 1.796875 -33.859375 L 1.796875 -38.765625 L 8.1875 -42.65625 L 11.546875 -51.640625 L 18.96875 -51.640625 L 18.96875 -42.578125 L 30.890625 -42.578125 L 30.890625 -33.859375 L 18.96875 -33.859375 L 18.96875 -13.328125 C 18.96875 -11.679688 19.429688 -10.460938 20.359375 -9.671875 C 21.285156 -8.890625 22.507812 -8.5 24.03125 -8.5 Z M 24.03125 -8.5 "/></g></g></g><g fill="#54c5bb" fill-opacity="1"><g transform="translate(956.593266, 376.282109)"><g><path d="M 15.34375 -21.359375 C 15.34375 -17.148438 16.035156 -13.960938 17.421875 -11.796875 C 18.804688 -9.640625 21.0625 -8.5625 24.1875 -8.5625 C 27.28125 -8.5625 29.503906 -9.632812 30.859375 -11.78125 C 32.222656 -13.925781 32.90625 -17.117188 32.90625 -21.359375 C 32.90625 -25.578125 32.21875 -28.738281 30.84375 -30.84375 C 29.476562 -32.957031 27.234375 -34.015625 24.109375 -34.015625 C 21.015625 -34.015625 18.78125 -32.96875 17.40625 -30.875 C 16.03125 -28.78125 15.34375 -25.609375 15.34375 -21.359375 Z M 44.796875 -21.359375 C 44.796875 -14.429688 42.96875 -9.007812 39.3125 -5.09375 C 35.65625 -1.1875 30.5625 0.765625 24.03125 0.765625 C 19.945312 0.765625 16.34375 -0.128906 13.21875 -1.921875 C 10.09375 -3.710938 7.691406 -6.28125 6.015625 -9.625 C 4.335938 -12.976562 3.5 -16.890625 3.5 -21.359375 C 3.5 -28.316406 5.3125 -33.722656 8.9375 -37.578125 C 12.570312 -41.441406 17.679688 -43.375 24.265625 -43.375 C 28.347656 -43.375 31.953125 -42.484375 35.078125 -40.703125 C 38.203125 -38.929688 40.601562 -36.378906 42.28125 -33.046875 C 43.957031 -29.722656 44.796875 -25.828125 44.796875 -21.359375 Z M 44.796875 -21.359375 "/></g></g></g><g fill="#54c5bb" fill-opacity="1"><g transform="translate(1004.880686, 376.282109)"><g><path d="M 23.390625 0.765625 C 10.128906 0.765625 3.5 -6.507812 3.5 -21.0625 C 3.5 -28.300781 5.300781 -33.828125 8.90625 -37.640625 C 12.519531 -41.460938 17.6875 -43.375 24.40625 -43.375 C 29.332031 -43.375 33.753906 -42.410156 37.671875 -40.484375 L 34.234375 -31.5 C 32.410156 -32.238281 30.710938 -32.84375 29.140625 -33.3125 C 27.566406 -33.78125 25.988281 -34.015625 24.40625 -34.015625 C 18.363281 -34.015625 15.34375 -29.722656 15.34375 -21.140625 C 15.34375 -12.804688 18.363281 -8.640625 24.40625 -8.640625 C 26.644531 -8.640625 28.71875 -8.9375 30.625 -9.53125 C 32.53125 -10.132812 34.429688 -11.070312 36.328125 -12.34375 L 36.328125 -2.40625 C 34.453125 -1.207031 32.554688 -0.378906 30.640625 0.078125 C 28.722656 0.535156 26.304688 0.765625 23.390625 0.765625 Z M 23.390625 0.765625 "/></g></g></g><g fill="#54c5bb" fill-opacity="1"><g transform="translate(1044.980563, 376.282109)"><g><path d="M 15.34375 -21.359375 C 15.34375 -17.148438 16.035156 -13.960938 17.421875 -11.796875 C 18.804688 -9.640625 21.0625 -8.5625 24.1875 -8.5625 C 27.28125 -8.5625 29.503906 -9.632812 30.859375 -11.78125 C 32.222656 -13.925781 32.90625 -17.117188 32.90625 -21.359375 C 32.90625 -25.578125 32.21875 -28.738281 30.84375 -30.84375 C 29.476562 -32.957031 27.234375 -34.015625 24.109375 -34.015625 C 21.015625 -34.015625 18.78125 -32.96875 17.40625 -30.875 C 16.03125 -28.78125 15.34375 -25.609375 15.34375 -21.359375 Z M 44.796875 -21.359375 C 44.796875 -14.429688 42.96875 -9.007812 39.3125 -5.09375 C 35.65625 -1.1875 30.5625 0.765625 24.03125 0.765625 C 19.945312 0.765625 16.34375 -0.128906 13.21875 -1.921875 C 10.09375 -3.710938 7.691406 -6.28125 6.015625 -9.625 C 4.335938 -12.976562 3.5 -16.890625 3.5 -21.359375 C 3.5 -28.316406 5.3125 -33.722656 8.9375 -37.578125 C 12.570312 -41.441406 17.679688 -43.375 24.265625 -43.375 C 28.347656 -43.375 31.953125 -42.484375 35.078125 -40.703125 C 38.203125 -38.929688 40.601562 -36.378906 42.28125 -33.046875 C 43.957031 -29.722656 44.796875 -25.828125 44.796875 -21.359375 Z M 44.796875 -21.359375 "/></g></g></g><g fill="#54c5bb" fill-opacity="1"><g transform="translate(1093.267984, 376.282109)"><g><path d="M 17.703125 0 L 6.09375 0 L 6.09375 -59.265625 L 17.703125 -59.265625 Z M 17.703125 0 "/></g></g></g></svg>