<svg xmlns="http://www.w3.org/2000/svg" xmlns:xlink="http://www.w3.org/1999/xlink" zoomAndPan="magnify" preserveAspectRatio="xMidYMid meet" version="1.0" viewBox="169.81 261.2 965.07 169.29"><defs><g/><clipPath id="0e67829e07"><path d="M 237 418 L 282 418 L 282 430.457031 L 237 430.457031 Z M 237 418 " clip-rule="nonzero"/></clipPath><clipPath id="fcee488254"><path d="M 206 261.199219 L 264 261.199219 L 264 320 L 206 320 Z M 206 261.199219 " clip-rule="nonzero"/></clipPath><clipPath id="c8c0aaee6a"><path d="M 169.8125 299 L 224 299 L 224 353 L 169.8125 353 Z M 169.8125 299 " clip-rule="nonzero"/></clipPath><clipPath id="c6a791ae89"><path d="M 296 300 L 348.800781 300 L 348.800781 353 L 296 353 Z M 296 300 " clip-rule="nonzero"/></clipPath></defs><g clip-path="url(#0e67829e07)"><path fill="#bdbcbd" d="M 259.332031 430.484375 C 247.183594 430.484375 237.339844 427.851562 237.339844 424.605469 C 237.339844 421.355469 247.183594 418.722656 259.332031 418.722656 C 271.476562 418.722656 281.324219 421.355469 281.324219 424.605469 C 281.324219 427.851562 271.476562 430.484375 259.332031 430.484375 " fill-opacity="1" fill-rule="nonzero"/></g><path fill="#54c5bb" d="M 288.113281 320 C 276.648438 320 266.8125 313.09375 262.558594 303.222656 C 264.378906 299.398438 265.402344 295.125 265.402344 290.609375 C 265.402344 286.769531 264.664062 283.101562 263.320312 279.742188 C 267.914062 270.746094 277.289062 264.582031 288.113281 264.582031 C 303.464844 264.582031 315.914062 276.992188 315.914062 292.292969 C 315.914062 295.726562 315.285156 299.019531 314.140625 302.054688 C 306.53125 304.652344 300.507812 310.65625 297.898438 318.238281 C 294.855469 319.378906 291.554688 320 288.113281 320 " fill-opacity="1" fill-rule="nonzero"/><path fill="#ffffff" d="M 277.164062 290.019531 C 278.769531 290.019531 280.070312 291.316406 280.070312 292.917969 C 280.070312 294.519531 278.769531 295.8125 277.164062 295.8125 C 275.558594 295.8125 274.257812 294.519531 274.257812 292.917969 C 274.257812 291.316406 275.558594 290.019531 277.164062 290.019531 " fill-opacity="1" fill-rule="nonzero"/><path fill="#ffffff" d="M 289.695312 292.042969 C 290.679688 291.933594 291.292969 292.355469 291.292969 295.113281 C 291.292969 296.855469 290.765625 296.964844 289.945312 296.992188 C 287.152344 297.082031 282.789062 296.992188 282.292969 296.992188 C 281.144531 296.992188 280.25 295.707031 280.25 293.539062 C 280.25 291.007812 283.046875 291.265625 283.183594 291.265625 C 283.714844 291.265625 288.390625 292.195312 289.695312 292.042969 " fill-opacity="1" fill-rule="nonzero"/><path fill="#ffffff" d="M 271.640625 303.117188 C 271.640625 303.777344 271.101562 304.316406 270.4375 304.316406 C 269.777344 304.316406 269.238281 303.777344 269.238281 303.117188 L 269.238281 286.773438 C 269.238281 286.113281 269.777344 285.578125 270.4375 285.578125 C 271.101562 285.578125 271.640625 286.113281 271.640625 286.773438 L 271.640625 303.117188 " fill-opacity="1" fill-rule="nonzero"/><path fill="#ffffff" d="M 307.832031 303.117188 C 307.832031 303.777344 307.296875 304.316406 306.632812 304.316406 C 305.96875 304.316406 305.429688 303.777344 305.429688 303.117188 L 305.429688 294.398438 C 305.429688 293.738281 305.96875 293.203125 306.632812 293.203125 C 307.296875 293.203125 307.832031 293.738281 307.832031 294.398438 L 307.832031 303.117188 " fill-opacity="1" fill-rule="nonzero"/><path fill="#ffffff" d="M 307.414062 298.902344 C 307.414062 299.621094 306.847656 300.203125 306.140625 300.203125 L 271.292969 300.203125 C 270.589844 300.203125 270.023438 299.621094 270.023438 298.902344 C 270.023438 298.183594 270.589844 297.601562 271.292969 297.601562 L 306.140625 297.601562 C 306.847656 297.601562 307.414062 298.183594 307.414062 298.902344 " fill-opacity="1" fill-rule="nonzero"/><path fill="#ffffff" d="M 279.109375 296.011719 C 279.109375 296.601562 278.699219 297.082031 278.195312 297.082031 L 273.335938 297.082031 C 272.832031 297.082031 272.421875 296.601562 272.421875 296.011719 C 272.421875 295.425781 272.832031 294.945312 273.335938 294.945312 L 278.195312 294.945312 C 278.699219 294.945312 279.109375 295.425781 279.109375 296.011719 " fill-opacity="1" fill-rule="nonzero"/><path fill="#ffffff" d="M 303.238281 293.203125 C 303.238281 291.351562 285.742188 290.882812 285.742188 290.882812 L 285.742188 301.347656 L 303.238281 301.347656 C 303.238281 301.347656 303.238281 295.050781 303.238281 293.203125 " fill-opacity="1" fill-rule="nonzero"/><path fill="#ffffff" d="M 284.644531 295.761719 C 283.6875 295.761719 282.675781 295.570312 281.636719 295.109375 C 280.925781 294.792969 280.605469 293.964844 280.925781 293.253906 C 281.242188 292.542969 282.074219 292.226562 282.789062 292.542969 C 286.203125 294.0625 288.933594 290.902344 289.046875 290.765625 C 289.546875 290.171875 290.433594 290.09375 291.03125 290.589844 C 291.625 291.089844 291.710938 291.96875 291.214844 292.566406 C 290.128906 293.867188 287.65625 295.761719 284.644531 295.761719 " fill-opacity="1" fill-rule="nonzero"/><path fill="#ffffff" d="M 279.511719 286.242188 L 280.601562 282.175781 L 278.507812 282.894531 L 278.304688 282.316406 L 281.574219 281.195312 L 280.484375 285.257812 L 282.695312 284.5 L 282.898438 285.078125 L 279.511719 286.242188 " fill-opacity="1" fill-rule="nonzero"/><path fill="#ffffff" d="M 284.070312 281.664062 L 285.910156 274.78125 L 282.367188 275.996094 L 282.027344 275.015625 L 287.558594 273.113281 L 285.714844 279.996094 L 289.464844 278.710938 L 289.800781 279.695312 L 284.070312 281.664062 " fill-opacity="1" fill-rule="nonzero"/><path fill="#ffffff" d="M 292.417969 280.148438 L 294.75 271.441406 L 290.269531 272.984375 L 289.835938 271.738281 L 296.832031 269.335938 L 294.503906 278.039062 L 299.238281 276.410156 L 299.667969 277.65625 L 292.417969 280.148438 " fill-opacity="1" fill-rule="nonzero"/><g clip-path="url(#fcee488254)"><path fill="#c13331" d="M 235.910156 320 C 230.957031 320 226.289062 318.785156 222.191406 316.632812 C 219.773438 310.054688 214.851562 304.683594 208.578125 301.664062 C 207.1875 298.25 206.421875 294.519531 206.421875 290.609375 C 206.421875 274.375 219.625 261.214844 235.910156 261.214844 C 248.347656 261.214844 258.984375 268.886719 263.320312 279.742188 C 261.394531 283.507812 260.308594 287.773438 260.308594 292.292969 C 260.308594 296.175781 261.109375 299.867188 262.558594 303.222656 C 257.820312 313.144531 247.671875 320 235.910156 320 " fill-opacity="1" fill-rule="nonzero"/></g><path fill="#5d3b3a" d="M 262.558594 303.222656 C 261.109375 299.867188 260.308594 296.175781 260.308594 292.292969 C 260.308594 287.773438 261.394531 283.507812 263.320312 279.742188 C 264.664062 283.101562 265.402344 286.769531 265.402344 290.609375 C 265.402344 295.125 264.378906 299.398438 262.558594 303.222656 " fill-opacity="1" fill-rule="nonzero"/><path fill="#ffffff" d="M 254.695312 288.605469 C 254.695312 297.835938 245.671875 315.75 236.40625 309.808594 C 229.074219 315.914062 218.117188 297.835938 218.117188 288.605469 C 218.117188 279.382812 221.824219 273.671875 236.40625 276.402344 C 251.152344 273.347656 254.695312 279.382812 254.695312 288.605469 " fill-opacity="1" fill-rule="nonzero"/><path fill="#ffffff" d="M 236.644531 276.976562 L 235.878906 276.976562 C 235.878906 276.976562 237.410156 272.679688 237.039062 269.425781 C 236.886719 268.542969 238.742188 267.980469 238.984375 268.460938 C 238.902344 272.839844 236.644531 276.976562 236.644531 276.976562 " fill-opacity="1" fill-rule="nonzero"/><path fill="#ffffff" d="M 245.828125 269.886719 C 245.828125 269.886719 244.992188 272.785156 242.746094 273.882812 C 240.5 274.980469 237.691406 273.867188 237.691406 273.867188 C 237.691406 273.867188 238.527344 270.972656 240.773438 269.871094 C 243.019531 268.773438 245.828125 269.886719 245.828125 269.886719 " fill-opacity="1" fill-rule="nonzero"/><path fill="#ffffff" d="M 237.214844 274.238281 C 237.214844 274.238281 234.847656 274.144531 233.589844 272.644531 C 232.328125 271.144531 232.65625 268.804688 232.65625 268.804688 C 232.65625 268.804688 235.023438 268.898438 236.28125 270.398438 C 237.539062 271.898438 237.214844 274.238281 237.214844 274.238281 " fill-opacity="1" fill-rule="nonzero"/><g clip-path="url(#c8c0aaee6a)"><path fill="#f68712" d="M 196.875 352.722656 C 181.992188 352.722656 169.929688 340.695312 169.929688 325.863281 C 169.929688 311.03125 181.992188 299.007812 196.875 299.007812 C 201.070312 299.007812 205.039062 299.960938 208.578125 301.664062 C 211.203125 308.109375 216.058594 313.414062 222.191406 316.632812 C 223.246094 319.511719 223.824219 322.621094 223.824219 325.863281 C 223.824219 340.695312 211.757812 352.722656 196.875 352.722656 " fill-opacity="1" fill-rule="nonzero"/></g><path fill="#c12a23" d="M 222.191406 316.632812 C 216.058594 313.414062 211.203125 308.109375 208.578125 301.664062 C 214.851562 304.683594 219.773438 310.054688 222.191406 316.632812 " fill-opacity="1" fill-rule="nonzero"/><path fill="#ffffff" d="M 184.523438 323.484375 C 180.824219 323.484375 177.8125 326.484375 177.8125 330.167969 C 177.8125 333.855469 180.824219 336.855469 184.523438 336.855469 C 188.222656 336.855469 191.230469 333.855469 191.230469 330.167969 C 191.230469 326.484375 188.222656 323.484375 184.523438 323.484375 Z M 184.523438 338.125 C 180.121094 338.125 176.542969 334.554688 176.542969 330.167969 C 176.542969 325.785156 180.121094 322.214844 184.523438 322.214844 C 188.921875 322.214844 192.503906 325.785156 192.503906 330.167969 C 192.503906 334.554688 188.921875 338.125 184.523438 338.125 " fill-opacity="1" fill-rule="nonzero"/><path fill="#ffffff" d="M 184.523438 324.226562 C 181.234375 324.226562 178.554688 326.890625 178.554688 330.167969 C 178.554688 333.445312 181.234375 336.117188 184.523438 336.117188 C 187.8125 336.117188 190.488281 333.445312 190.488281 330.167969 C 190.488281 326.890625 187.8125 324.226562 184.523438 324.226562 Z M 184.523438 336.46875 C 181.039062 336.46875 178.203125 333.644531 178.203125 330.167969 C 178.203125 326.699219 181.039062 323.871094 184.523438 323.871094 C 188.007812 323.871094 190.84375 326.699219 190.84375 330.167969 C 190.84375 333.644531 188.007812 336.46875 184.523438 336.46875 " fill-opacity="1" fill-rule="nonzero"/><path fill="#ffffff" d="M 185.863281 330.167969 C 185.863281 330.910156 185.261719 331.507812 184.523438 331.507812 C 183.78125 331.507812 183.183594 330.910156 183.183594 330.167969 C 183.183594 329.433594 183.78125 328.835938 184.523438 328.835938 C 185.261719 328.835938 185.863281 329.433594 185.863281 330.167969 " fill-opacity="1" fill-rule="nonzero"/><path fill="#ffffff" d="M 198.453125 330.898438 C 198.453125 331.972656 197.578125 332.84375 196.503906 332.84375 C 195.425781 332.84375 194.550781 331.972656 194.550781 330.898438 C 194.550781 329.824219 195.425781 328.953125 196.503906 328.953125 C 197.578125 328.953125 198.453125 329.824219 198.453125 330.898438 " fill-opacity="1" fill-rule="nonzero"/><path fill="#ffffff" d="M 210.789062 322.777344 C 207.089844 322.777344 204.082031 325.777344 204.082031 329.464844 C 204.082031 333.152344 207.089844 336.152344 210.789062 336.152344 C 214.488281 336.152344 217.5 333.152344 217.5 329.464844 C 217.5 325.777344 214.488281 322.777344 210.789062 322.777344 Z M 210.789062 337.421875 C 206.390625 337.421875 202.8125 333.851562 202.8125 329.464844 C 202.8125 325.082031 206.390625 321.515625 210.789062 321.515625 C 215.191406 321.515625 218.769531 325.082031 218.769531 329.464844 C 218.769531 333.851562 215.191406 337.421875 210.789062 337.421875 " fill-opacity="1" fill-rule="nonzero"/><path fill="#ffffff" d="M 210.789062 323.519531 C 207.503906 323.519531 204.824219 326.1875 204.824219 329.464844 C 204.824219 332.746094 207.503906 335.410156 210.789062 335.410156 C 214.082031 335.410156 216.757812 332.746094 216.757812 329.464844 C 216.757812 326.1875 214.082031 323.519531 210.789062 323.519531 Z M 210.789062 335.765625 C 207.308594 335.765625 204.472656 332.941406 204.472656 329.464844 C 204.472656 325.992188 207.308594 323.167969 210.789062 323.167969 C 214.273438 323.167969 217.109375 325.992188 217.109375 329.464844 C 217.109375 332.941406 214.273438 335.765625 210.789062 335.765625 " fill-opacity="1" fill-rule="nonzero"/><path fill="#ffffff" d="M 212.132812 329.464844 C 212.132812 330.203125 211.53125 330.800781 210.789062 330.800781 C 210.050781 330.800781 209.449219 330.203125 209.449219 329.464844 C 209.449219 328.730469 210.050781 328.128906 210.789062 328.128906 C 211.53125 328.128906 212.132812 328.730469 212.132812 329.464844 " fill-opacity="1" fill-rule="nonzero"/><path fill="#ffffff" d="M 184.6875 330.300781 L 184.355469 330.039062 L 192.777344 319.339844 L 193.109375 319.601562 L 184.6875 330.300781 " fill-opacity="1" fill-rule="nonzero"/><path fill="#ffffff" d="M 196.300781 330.960938 L 190.460938 312.214844 L 190.867188 312.089844 L 196.703125 330.835938 L 196.300781 330.960938 " fill-opacity="1" fill-rule="nonzero"/><path fill="#ffffff" d="M 192.96875 319.683594 L 192.917969 319.261719 L 208.09375 317.433594 L 208.144531 317.851562 L 192.96875 319.683594 " fill-opacity="1" fill-rule="nonzero"/><path fill="#ffffff" d="M 196.648438 331.378906 L 196.351562 331.074219 L 208.382812 319.320312 L 208.679688 319.621094 L 196.648438 331.378906 " fill-opacity="1" fill-rule="nonzero"/><path fill="#ffffff" d="M 210.585938 329.511719 L 207.050781 313.886719 L 207.46875 313.796875 L 210.996094 329.421875 L 210.585938 329.511719 " fill-opacity="1" fill-rule="nonzero"/><path fill="#ffffff" d="M 196.480469 331.4375 L 184.503906 330.382812 L 184.539062 329.960938 L 196.519531 331.015625 L 196.480469 331.4375 " fill-opacity="1" fill-rule="nonzero"/><path fill="#ffffff" d="M 194.523438 312.40625 C 194.523438 312.40625 194.121094 312.507812 193.507812 312.625 C 193.203125 312.683594 192.847656 312.75 192.46875 312.804688 C 192.277344 312.835938 192.082031 312.871094 191.882812 312.890625 C 191.683594 312.914062 191.480469 312.941406 191.28125 312.964844 C 190.875 313.003906 190.464844 313.164062 190.089844 313.152344 C 189.902344 313.148438 189.722656 313.109375 189.550781 313.046875 C 189.382812 312.992188 189.222656 312.921875 189.078125 312.84375 C 188.929688 312.765625 188.796875 312.679688 188.679688 312.59375 C 188.5625 312.507812 188.460938 312.410156 188.378906 312.335938 C 188.292969 312.253906 188.230469 312.183594 188.183594 312.128906 C 188.140625 312.074219 188.117188 312.046875 188.117188 312.046875 L 188.128906 311.835938 C 188.128906 311.835938 188.15625 311.8125 188.207031 311.757812 C 188.253906 311.710938 188.328125 311.648438 188.421875 311.578125 C 188.511719 311.507812 188.625 311.425781 188.75 311.355469 C 188.875 311.285156 189.019531 311.210938 189.171875 311.152344 C 189.328125 311.089844 189.492188 311.039062 189.667969 311 C 189.84375 310.960938 190.027344 310.941406 190.214844 310.957031 C 190.589844 310.988281 190.980469 311.195312 191.375 311.277344 C 191.574219 311.324219 191.773438 311.371094 191.96875 311.417969 C 192.164062 311.460938 192.355469 311.515625 192.539062 311.566406 C 192.910156 311.664062 193.257812 311.773438 193.550781 311.863281 C 194.144531 312.046875 194.539062 312.195312 194.539062 312.195312 L 194.523438 312.40625 " fill-opacity="1" fill-rule="nonzero"/><path fill="#ffffff" d="M 199.585938 328.289062 C 199.585938 328.289062 199.402344 328.328125 199.117188 328.375 C 198.980469 328.398438 198.816406 328.421875 198.640625 328.445312 C 198.464844 328.472656 198.277344 328.484375 198.09375 328.507812 C 197.902344 328.519531 197.714844 328.582031 197.539062 328.578125 C 197.367188 328.574219 197.207031 328.511719 197.074219 328.449219 C 196.9375 328.378906 196.828125 328.304688 196.75 328.234375 C 196.671875 328.167969 196.628906 328.117188 196.628906 328.117188 L 196.632812 328.03125 C 196.632812 328.03125 196.683594 327.980469 196.769531 327.925781 C 196.851562 327.867188 196.972656 327.804688 197.113281 327.753906 C 197.257812 327.703125 197.421875 327.664062 197.59375 327.675781 C 197.765625 327.695312 197.949219 327.777344 198.128906 327.8125 C 198.316406 327.855469 198.496094 327.890625 198.667969 327.9375 C 198.839844 327.980469 199 328.023438 199.136719 328.0625 C 199.410156 328.140625 199.59375 328.203125 199.59375 328.203125 L 199.585938 328.289062 " fill-opacity="1" fill-rule="nonzero"/><path fill="#ffffff" d="M 196.898438 334.175781 C 196.898438 334.175781 196.710938 334.21875 196.429688 334.265625 C 196.289062 334.285156 196.125 334.3125 195.949219 334.335938 C 195.773438 334.363281 195.585938 334.378906 195.402344 334.394531 C 195.214844 334.410156 195.023438 334.472656 194.851562 334.46875 C 194.679688 334.460938 194.519531 334.402344 194.382812 334.339844 C 194.25 334.269531 194.136719 334.195312 194.058594 334.125 C 193.980469 334.058594 193.9375 334.003906 193.9375 334.003906 L 193.941406 333.917969 C 193.941406 333.917969 193.992188 333.871094 194.078125 333.816406 C 194.160156 333.753906 194.28125 333.695312 194.421875 333.640625 C 194.566406 333.59375 194.730469 333.554688 194.90625 333.566406 C 195.078125 333.582031 195.257812 333.664062 195.441406 333.703125 C 195.625 333.742188 195.808594 333.78125 195.976562 333.824219 C 196.148438 333.867188 196.308594 333.914062 196.445312 333.953125 C 196.722656 334.03125 196.902344 334.089844 196.902344 334.089844 L 196.898438 334.175781 " fill-opacity="1" fill-rule="nonzero"/><path fill="#ffffff" d="M 209.945312 316.957031 C 209.851562 316.957031 209.761719 316.894531 209.738281 316.796875 C 209.707031 316.6875 209.777344 316.570312 209.890625 316.539062 C 211.230469 316.1875 212.21875 315.273438 212.527344 314.082031 C 212.71875 313.359375 212.601562 312.679688 212.21875 312.316406 C 211.917969 312.03125 211.476562 311.964844 210.941406 312.125 C 210.308594 312.316406 209.730469 312.472656 209.167969 312.621094 C 208.691406 312.746094 208.242188 312.867188 207.8125 312.996094 C 207.355469 313.128906 207.371094 313.414062 207.507812 313.980469 L 207.535156 314.105469 C 207.5625 314.21875 207.492188 314.332031 207.378906 314.355469 C 207.261719 314.382812 207.148438 314.3125 207.125 314.195312 L 207.09375 314.078125 C 206.992188 313.652344 206.800781 312.855469 207.6875 312.589844 C 208.125 312.460938 208.578125 312.339844 209.058594 312.210938 C 209.617188 312.066406 210.191406 311.910156 210.820312 311.722656 C 211.5 311.515625 212.101562 311.621094 212.511719 312.011719 C 213.003906 312.484375 213.167969 313.316406 212.9375 314.191406 C 212.589844 315.527344 211.488281 316.5625 209.996094 316.949219 L 209.945312 316.957031 " fill-opacity="1" fill-rule="nonzero"/><path fill="#ffffff" d="M 195.421875 334.261719 L 195.347656 334.246094 C 195.238281 334.207031 195.183594 334.085938 195.222656 333.972656 L 197.445312 328.054688 C 197.484375 327.949219 197.605469 327.890625 197.71875 327.933594 C 197.828125 327.972656 197.882812 328.09375 197.839844 328.203125 L 195.617188 334.125 C 195.585938 334.207031 195.507812 334.261719 195.421875 334.261719 " fill-opacity="1" fill-rule="nonzero"/><g clip-path="url(#c6a791ae89)"><path fill="#a675c1" d="M 322.609375 352.722656 C 308.183594 352.722656 296.492188 341.066406 296.492188 326.6875 C 296.492188 323.730469 296.988281 320.886719 297.898438 318.238281 C 305.378906 315.433594 311.324219 309.507812 314.140625 302.054688 C 316.796875 301.148438 319.644531 300.65625 322.609375 300.65625 C 337.039062 300.65625 348.730469 312.3125 348.730469 326.6875 C 348.730469 341.066406 337.039062 352.722656 322.609375 352.722656 " fill-opacity="1" fill-rule="nonzero"/></g><path fill="#487098" d="M 297.898438 318.238281 C 300.507812 310.65625 306.53125 304.652344 314.140625 302.054688 C 311.324219 309.507812 305.378906 315.433594 297.898438 318.238281 " fill-opacity="1" fill-rule="nonzero"/><path fill="#ffffff" d="M 322.9375 326.527344 L 323.46875 326.527344 L 324.613281 324.5 L 325.410156 326.320312 L 326.824219 325.164062 L 327.335938 326.34375 L 328.953125 325.1875 L 330.171875 328.105469 L 330.574219 326.527344 L 333.132812 326.527344 L 335.496094 322.289062 L 336.546875 327.347656 L 337.421875 322.894531 L 338.332031 326.527344 L 340.003906 326.527344 C 340.460938 325.300781 340.722656 324.058594 340.722656 322.820312 C 340.722656 317.597656 336.476562 313.363281 331.234375 313.363281 C 325.996094 313.363281 322.613281 319.152344 322.613281 319.152344 L 322.601562 319.132812 L 322.9375 326.527344 " fill-opacity="1" fill-rule="nonzero"/><path fill="#ffffff" d="M 309.179688 326.527344 L 311.484375 322.734375 L 312.664062 326.527344 L 316.761719 326.527344 L 316.761719 326.867188 L 317.332031 326.527344 L 318.921875 326.527344 L 320.53125 320.410156 L 320.855469 327.242188 L 322.484375 318.945312 C 321.824219 317.917969 318.636719 313.363281 313.988281 313.363281 C 308.746094 313.363281 304.5 317.597656 304.5 322.820312 C 304.5 324.058594 304.761719 325.300781 305.21875 326.527344 L 309.179688 326.527344 " fill-opacity="1" fill-rule="nonzero"/><path fill="#ffffff" d="M 337.796875 327.207031 L 337.503906 326.027344 L 336.566406 330.800781 L 335.199219 324.222656 L 333.535156 327.207031 L 331.105469 327.207031 L 330.328125 330.25 L 328.652344 326.242188 L 327.046875 327.390625 L 326.558594 326.265625 L 325.148438 327.417969 L 324.535156 326.027344 L 323.867188 327.207031 L 322.285156 327.207031 L 322.148438 324.207031 L 320.441406 332.914062 L 320.058594 324.894531 L 319.449219 327.207031 L 317.519531 327.207031 L 316.078125 328.074219 L 316.078125 327.207031 L 312.160156 327.207031 L 311.285156 324.382812 L 309.5625 327.207031 L 305.492188 327.207031 C 309.277344 335.957031 322.613281 343.738281 322.613281 343.738281 C 322.613281 343.738281 335.945312 335.957031 339.730469 327.207031 L 337.796875 327.207031 " fill-opacity="1" fill-rule="nonzero"/><path fill="#c13331" d="M 284.414062 336.792969 C 269.171875 336.792969 259.332031 353.628906 259.332031 353.628906 C 259.332031 353.628906 249.488281 336.792969 234.246094 336.792969 C 219.003906 336.792969 206.648438 349.105469 206.648438 364.300781 C 206.648438 394.414062 259.332031 425.148438 259.332031 425.148438 C 259.332031 425.148438 312.011719 394.414062 312.011719 364.300781 C 312.011719 349.105469 299.65625 336.792969 284.414062 336.792969 " fill-opacity="1" fill-rule="nonzero"/><path fill="#aa2c2a" d="M 310.71875 355.957031 C 309.472656 363.441406 307.089844 370.730469 303.496094 377.488281 C 296.214844 391.191406 283.921875 405.269531 268.125 408.863281 C 262.191406 410.210938 254.652344 411.210938 248.890625 408.644531 C 244.878906 406.859375 241.136719 404.429688 237.390625 402.164062 C 235.96875 401.304688 225.320312 394.425781 218.113281 390.824219 C 233.609375 410.140625 259.332031 425.148438 259.332031 425.148438 C 259.332031 425.148438 312.011719 394.414062 312.011719 364.300781 C 312.011719 361.390625 311.554688 358.589844 310.71875 355.957031 " fill-opacity="1" fill-rule="nonzero"/><path fill="#c13c3b" d="M 263.488281 350.238281 C 265.527344 349.300781 267.542969 348.296875 269.550781 347.300781 C 275.035156 344.59375 280.089844 341.136719 286.210938 340.042969 C 291.257812 339.140625 296.730469 340.269531 301.492188 342.710938 C 296.792969 339.011719 290.867188 336.792969 284.414062 336.792969 C 273.007812 336.792969 264.628906 346.21875 261.132812 350.964844 C 261.847656 350.867188 262.628906 350.632812 263.488281 350.238281 " fill-opacity="1" fill-rule="nonzero"/><path fill="#c13c3b" d="M 253.839844 346.796875 C 254.609375 347.640625 255.332031 348.425781 256.070312 349.089844 C 251.988281 344.105469 244.292969 336.792969 234.246094 336.792969 C 226.820312 336.792969 220.085938 339.71875 215.125 344.472656 C 215.796875 344.289062 225.429688 340.730469 234.195312 340.851562 C 243.539062 340.976562 252.074219 344.84375 253.839844 346.796875 " fill-opacity="1" fill-rule="nonzero"/><path fill="#ffffff" d="M 204.121094 376.574219 L 221.09375 376.574219 L 226.523438 367.640625 L 229.292969 376.574219 L 240.820312 376.574219 L 240.820312 378.703125 L 244.382812 376.574219 L 249.757812 376.574219 L 252.25 367.078125 L 253.316406 389.546875 L 258.289062 364.179688 L 258.855469 376.574219 L 262.695312 376.574219 L 264.984375 372.515625 L 266.898438 376.878906 L 271 373.519531 L 272.445312 376.839844 L 277.121094 373.488281 L 281.664062 384.351562 L 283.65625 376.574219 L 290.816406 376.574219 L 296.164062 366.976562 L 299.910156 385.011719 L 302.589844 371.351562 L 303.902344 376.574219 L 314.539062 376.574219 L 314.539062 375.582031 L 304.679688 375.582031 L 302.472656 366.792969 L 299.882812 379.988281 L 296.597656 364.160156 L 290.230469 375.582031 L 282.886719 375.582031 L 281.4375 381.230469 L 277.558594 371.953125 L 272.867188 375.316406 L 271.386719 371.921875 L 267.285156 375.28125 L 265.097656 370.292969 L 262.117188 375.582031 L 259.804688 375.582031 L 258.90625 355.867188 L 253.921875 381.292969 L 252.9375 360.558594 L 248.988281 375.582031 L 244.109375 375.582031 L 241.816406 376.953125 L 241.816406 375.582031 L 230.027344 375.582031 L 226.820312 365.242188 L 220.535156 375.582031 L 204.121094 375.582031 L 204.121094 376.574219 " fill-opacity="1" fill-rule="nonzero"/><path stroke-linecap="butt" transform="matrix(0.748919, 0, 0, 0.748919, 348.573988, 276.725693)" fill="none" stroke-linejoin="miter" d="M 90.500507 95.748504 C 90.500507 111.333461 86.06182 123.27254 77.18966 131.56574 C 68.317501 139.853725 55.502159 144.000325 38.748852 144.000325 L 11.934171 144.000325 L 11.934171 49.306583 L 41.664512 49.306583 C 57.119073 49.306583 69.125957 53.385377 77.674734 61.548181 C 86.223511 69.705769 90.500507 81.107615 90.500507 95.748504 Z M 69.642327 96.264873 C 69.642327 75.928277 60.660634 65.757371 42.69725 65.757371 L 32.009975 65.757371 L 32.009975 127.41914 L 40.626558 127.41914 C 59.972142 127.41914 69.642327 117.034384 69.642327 96.264873 Z M 148.980608 70.227354 C 151.656339 70.227354 153.883507 70.42034 155.651679 70.811529 L 154.159947 89.333009 C 152.563897 88.900094 150.623601 88.686244 148.333843 88.686244 C 142.027881 88.686244 137.114551 90.303157 133.599069 93.5422 C 130.078371 96.781242 128.32063 101.313815 128.32063 107.145134 L 128.32063 144.000325 L 108.562993 144.000325 L 108.562993 71.588691 L 123.527264 71.588691 L 126.442924 83.762483 L 127.413072 83.762483 C 129.655887 79.704552 132.691511 76.434214 136.514729 73.95147 C 140.33273 71.468726 144.489762 70.227354 148.980608 70.227354 Z M 166.010356 134.736977 C 166.010356 131.111961 166.980504 128.368425 168.926016 126.511582 C 170.871527 124.65474 173.698518 123.726319 177.412202 123.726319 C 180.995491 123.726319 183.770322 124.675603 185.731482 126.574173 C 187.697857 128.477958 188.678436 131.195415 188.678436 134.736977 C 188.678436 138.148142 187.687425 140.83952 185.700187 142.800679 C 183.712948 144.767055 180.953764 145.747634 177.412202 145.747634 C 173.781971 145.747634 170.975844 144.787918 168.988606 142.868485 C 167.006583 140.943837 166.010356 138.236811 166.010356 134.736977 Z M 232.721067 171.852959 C 228.183278 171.852959 224.23488 171.378317 220.865442 170.423817 L 220.865442 153.717452 C 224.32355 154.578067 227.473923 155.010982 230.321776 155.010982 C 234.729169 155.010982 237.879542 153.639214 239.778111 150.895677 C 241.681896 148.157356 242.63118 143.869928 242.63118 138.038609 L 242.63118 49.306583 L 262.706984 49.306583 L 262.706984 137.913429 C 262.706984 148.965813 260.182513 157.384194 255.128355 163.173786 C 250.079413 168.958163 242.610317 171.852959 232.721067 171.852959 Z M 330.972018 144.000325 L 327.154016 134.152801 L 326.632431 134.152801 C 323.309935 138.341128 319.888338 141.246356 316.36764 142.868485 C 312.846942 144.485399 308.26221 145.293855 302.603014 145.293855 C 295.650287 145.293855 290.178861 143.306617 286.183521 139.337356 C 282.18818 135.362878 280.195726 129.708898 280.195726 122.364982 C 280.195726 114.682036 282.881888 109.012408 288.259429 105.36653 C 293.631754 101.715435 301.742399 99.696902 312.580934 99.310929 L 325.145914 98.91974 L 325.145914 95.748504 C 325.145914 88.404588 321.385287 84.73263 313.874464 84.73263 C 308.090087 84.73263 301.28862 86.485156 293.470062 89.979775 L 286.929387 76.637633 C 295.264314 72.277183 304.501583 70.096958 314.651626 70.096958 C 324.368753 70.096958 331.816985 72.214592 336.996324 76.444646 C 342.180878 80.6747 344.767939 87.111058 344.767939 95.748504 L 344.767939 144.000325 Z M 325.145914 110.446767 L 317.499479 110.707559 C 311.756829 110.879682 307.485049 111.917636 304.678922 113.816205 C 301.867579 115.714775 300.464516 118.609571 300.464516 122.495379 C 300.464516 128.065905 303.661831 130.851169 310.051247 130.851169 C 314.630762 130.851169 318.287073 129.536775 321.030609 126.902771 C 323.774146 124.268767 325.145914 120.768932 325.145914 116.408483 Z M 429.93754 144.000325 L 410.179903 144.000325 L 410.179903 101.705004 C 410.179903 96.478723 409.308857 92.56162 407.561547 89.94848 C 405.809022 87.335339 403.055053 86.031377 399.299642 86.031377 C 394.2507 86.031377 390.578742 87.888219 388.288984 91.601904 C 385.999227 95.315588 384.856956 101.423348 384.856956 109.930398 L 384.856956 144.000325 L 365.104535 144.000325 L 365.104535 71.588691 L 380.193986 71.588691 L 382.848854 80.846823 L 383.949398 80.846823 C 385.89491 77.524327 388.701036 74.921618 392.367778 73.043912 C 396.039736 71.166207 400.248927 70.227354 405.000565 70.227354 C 415.8391 70.227354 423.1778 73.768916 427.02188 80.846823 L 428.76919 80.846823 C 430.714702 77.4826 433.572987 74.86946 437.354478 73.012617 C 441.130752 71.155775 445.397317 70.227354 450.14374 70.227354 C 458.348271 70.227354 464.555131 72.329341 468.769537 76.543747 C 472.978727 80.752938 475.080715 87.497031 475.080715 96.781242 L 475.080715 144.000325 L 455.260488 144.000325 L 455.260488 101.705004 C 455.260488 96.478723 454.389441 92.56162 452.636916 89.94848 C 450.889606 87.335339 448.135638 86.031377 444.380226 86.031377 C 439.545134 86.031377 435.930551 87.757823 433.53126 91.210715 C 431.137185 94.668823 429.93754 100.150681 429.93754 107.661503 Z M 525.335421 84.284067 C 521.147095 84.284067 517.866325 85.608893 515.487898 88.26376 C 513.114687 90.918628 511.75335 94.689687 511.409104 99.566506 L 539.131343 99.566506 C 539.042673 94.689687 537.770006 90.918628 535.308125 88.26376 C 532.846244 85.608893 529.523748 84.284067 525.335421 84.284067 Z M 528.120685 145.293855 C 516.463262 145.293855 507.351174 142.080892 500.784419 135.644534 C 494.222881 129.208176 490.942112 120.101304 490.942112 108.313485 C 490.942112 96.176204 493.977736 86.798107 500.043769 80.168762 C 506.109801 73.539418 514.496887 70.227354 525.205025 70.227354 C 535.438521 70.227354 543.408339 73.143014 549.104046 78.969117 C 554.804969 84.800437 557.658039 92.853708 557.658039 103.128931 L 557.658039 112.715661 L 510.955325 112.715661 C 511.174391 118.327915 512.833031 122.714444 515.941677 125.864817 C 519.050323 129.01519 523.415989 130.590376 529.028243 130.590376 C 533.388693 130.590376 537.514429 130.136598 541.400237 129.234256 C 545.286045 128.326698 549.343975 126.876692 553.574029 124.894669 L 553.574029 140.177107 C 550.121137 141.903553 546.428316 143.191868 542.500781 144.03162 C 538.568031 144.876587 533.774665 145.293855 528.120685 145.293855 Z M 624.233138 122.495379 C 624.233138 129.922748 621.656508 135.581944 616.492818 139.467752 C 611.334343 143.353559 603.614886 145.293855 593.339663 145.293855 C 588.071655 145.293855 583.580809 144.939178 579.867125 144.224606 C 576.15344 143.515251 572.674469 142.466865 569.440642 141.084665 L 569.440642 124.764273 C 573.107384 126.490719 577.243552 127.935509 581.843931 129.103859 C 586.439095 130.266994 590.486594 130.851169 593.986428 130.851169 C 601.153005 130.851169 604.736293 128.780477 604.736293 124.633877 C 604.736293 123.079554 604.261651 121.817318 603.312367 120.841954 C 602.363082 119.871806 600.72009 118.771262 598.388605 117.540322 C 596.05712 116.309381 592.948474 114.875023 589.062667 113.23203 C 583.49214 110.900546 579.402914 108.741184 576.789774 106.759162 C 574.176633 104.771923 572.278064 102.492597 571.08885 99.921183 C 569.904853 97.354985 569.310246 94.188965 569.310246 90.433554 C 569.310246 84.002412 571.803422 79.026491 576.789774 75.505793 C 581.776125 71.985095 588.848817 70.227354 598.002632 70.227354 C 606.723532 70.227354 615.209719 72.125923 623.455976 75.928277 L 617.499476 90.177977 C 613.869245 88.623654 610.478943 87.345771 607.328571 86.35476 C 604.178198 85.358532 600.960019 84.863027 597.67925 84.863027 C 591.84793 84.863027 588.93227 86.438213 588.93227 89.593802 C 588.93227 91.361975 589.871123 92.895434 591.754045 94.188965 C 593.631751 95.487711 597.74184 97.407144 604.089528 99.957694 C 609.748725 102.242236 613.890109 104.380734 616.524113 106.367973 C 619.158116 108.355211 621.103628 110.644969 622.355432 113.23203 C 623.607236 115.824307 624.233138 118.91209 624.233138 122.495379 Z M 715.745211 144.000325 L 692.946735 69.705769 L 692.367775 69.705769 C 693.186664 84.8213 693.598716 94.903536 693.598716 99.957694 L 693.598716 144.000325 L 675.656195 144.000325 L 675.656195 49.306583 L 702.987244 49.306583 L 725.399748 121.718217 L 725.785721 121.718217 L 749.559562 49.306583 L 776.890611 49.306583 L 776.890611 144.000325 L 758.170929 144.000325 L 758.170929 99.180533 C 758.170929 97.062898 758.202224 94.621881 758.27003 91.85748 C 758.33262 89.098296 758.624708 81.754381 759.146292 69.836165 L 758.562117 69.836165 L 734.141512 144.000325 Z M 798.322536 52.869008 C 798.322536 46.43265 801.905824 43.219687 809.072401 43.219687 C 816.238978 43.219687 819.827482 46.43265 819.827482 52.869008 C 819.827482 55.935927 818.930356 58.31957 817.136104 60.025153 C 815.347067 61.730736 812.655689 62.580919 809.072401 62.580919 C 801.905824 62.580919 798.322536 59.347093 798.322536 52.869008 Z M 818.919924 144.000325 L 799.162287 144.000325 L 799.162287 71.588691 L 818.919924 71.588691 Z M 859.394914 144.000325 L 839.642493 144.000325 L 839.642493 43.219687 L 859.394914 43.219687 Z M 899.875119 144.000325 L 880.122698 144.000325 L 880.122698 43.219687 L 899.875119 43.219687 Z M 950.588821 84.284067 C 946.400494 84.284067 943.119725 85.608893 940.741297 88.26376 C 938.368086 90.918628 937.006749 94.689687 936.662503 99.566506 L 964.384742 99.566506 C 964.296072 94.689687 963.023405 90.918628 960.561524 88.26376 C 958.099643 85.608893 954.777147 84.284067 950.588821 84.284067 Z M 953.374084 145.293855 C 941.716661 145.293855 932.604573 142.080892 926.037819 135.644534 C 919.47628 129.208176 916.195511 120.101304 916.195511 108.313485 C 916.195511 96.176204 919.22592 86.798107 925.297168 80.168762 C 931.363201 73.539418 939.750286 70.227354 950.458424 70.227354 C 960.69192 70.227354 968.656522 73.143014 974.357445 78.969117 C 980.058368 84.800437 982.906222 92.853708 982.906222 103.128931 L 982.906222 112.715661 L 936.208724 112.715661 C 936.422574 118.327915 938.08643 122.714444 941.195076 125.864817 C 944.303722 129.01519 948.664172 130.590376 954.281642 130.590376 C 958.642092 130.590376 962.762613 130.136598 966.653636 129.234256 C 970.539444 128.326698 974.597374 126.876692 978.827428 124.894669 L 978.827428 140.177107 C 975.374536 141.903553 971.681715 143.191868 967.75418 144.03162 C 963.82143 144.876587 959.028065 145.293855 953.374084 145.293855 Z M 1039.383437 70.227354 C 1042.059168 70.227354 1044.286335 70.42034 1046.054508 70.811529 L 1044.562775 89.333009 C 1042.966725 88.900094 1041.021214 88.686244 1038.736672 88.686244 C 1032.43071 88.686244 1027.51738 90.303157 1024.001898 93.5422 C 1020.4812 96.781242 1018.723458 101.313815 1018.723458 107.145134 L 1018.723458 144.000325 L 998.965822 144.000325 L 998.965822 71.588691 L 1013.930093 71.588691 L 1016.840537 83.762483 L 1017.815901 83.762483 C 1020.058716 79.704552 1023.09434 76.434214 1026.912342 73.95147 C 1030.735559 71.468726 1034.892591 70.227354 1039.383437 70.227354 Z M 1039.383437 70.227354 " stroke="#00635a" stroke-width="5.803569" stroke-opacity="1" stroke-miterlimit="4"/><g fill="#54c5bb" fill-opacity="1"><g transform="translate(348.58569, 384.570069)"><g><path d="M 67.765625 -36.140625 C 67.765625 -24.460938 64.441406 -15.519531 57.796875 -9.3125 C 51.148438 -3.101562 41.550781 0 29 0 L 8.921875 0 L 8.921875 -70.921875 L 31.1875 -70.921875 C 42.769531 -70.921875 51.757812 -67.863281 58.15625 -61.75 C 64.5625 -55.632812 67.765625 -47.097656 67.765625 -36.140625 Z M 52.140625 -35.75 C 52.140625 -50.976562 45.414062 -58.59375 31.96875 -58.59375 L 23.96875 -58.59375 L 23.96875 -12.421875 L 30.421875 -12.421875 C 44.898438 -12.421875 52.140625 -20.195312 52.140625 -35.75 Z M 52.140625 -35.75 "/></g></g></g><g fill="#54c5bb" fill-opacity="1"><g transform="translate(422.118441, 384.570069)"><g><path d="M 38.03125 -55.25 C 40.03125 -55.25 41.695312 -55.101562 43.03125 -54.8125 L 41.90625 -40.9375 C 40.707031 -41.257812 39.253906 -41.421875 37.546875 -41.421875 C 32.828125 -41.421875 29.148438 -40.207031 26.515625 -37.78125 C 23.878906 -35.363281 22.5625 -31.96875 22.5625 -27.59375 L 22.5625 0 L 7.765625 0 L 7.765625 -54.234375 L 18.96875 -54.234375 L 21.15625 -45.109375 L 21.875 -45.109375 C 23.5625 -48.148438 25.832031 -50.597656 28.6875 -52.453125 C 31.550781 -54.316406 34.664062 -55.25 38.03125 -55.25 Z M 38.03125 -55.25 "/></g></g></g><g fill="#54c5bb" fill-opacity="1"><g transform="translate(467.227583, 384.570069)"><g><path d="M 5.671875 -6.9375 C 5.671875 -9.65625 6.398438 -11.707031 7.859375 -13.09375 C 9.316406 -14.488281 11.4375 -15.1875 14.21875 -15.1875 C 16.894531 -15.1875 18.96875 -14.472656 20.4375 -13.046875 C 21.914062 -11.628906 22.65625 -9.59375 22.65625 -6.9375 C 22.65625 -4.382812 21.910156 -2.367188 20.421875 -0.890625 C 18.929688 0.578125 16.863281 1.3125 14.21875 1.3125 C 11.5 1.3125 9.394531 0.59375 7.90625 -0.84375 C 6.414062 -2.28125 5.671875 -4.3125 5.671875 -6.9375 Z M 5.671875 -6.9375 "/></g></g></g><g fill="#54c5bb" fill-opacity="1"><g transform="translate(495.554184, 384.570069)"><g/></g></g><g fill="#54c5bb" fill-opacity="1"><g transform="translate(521.358553, 384.570069)"><g><path d="M 1.5 20.859375 C -1.894531 20.859375 -4.851562 20.503906 -7.375 19.796875 L -7.375 7.28125 C -4.789062 7.925781 -2.429688 8.25 -0.296875 8.25 C 3.003906 8.25 5.363281 7.21875 6.78125 5.15625 C 8.207031 3.101562 8.921875 -0.101562 8.921875 -4.46875 L 8.921875 -70.921875 L 23.96875 -70.921875 L 23.96875 -4.5625 C 23.96875 3.71875 22.070312 10.023438 18.28125 14.359375 C 14.5 18.691406 8.90625 20.859375 1.5 20.859375 Z M 1.5 20.859375 "/></g></g></g><g fill="#54c5bb" fill-opacity="1"><g transform="translate(554.244573, 384.570069)"><g><path d="M 42.203125 0 L 39.34375 -7.375 L 38.953125 -7.375 C 36.460938 -4.238281 33.898438 -2.0625 31.265625 -0.84375 C 28.628906 0.363281 25.191406 0.96875 20.953125 0.96875 C 15.742188 0.96875 11.644531 -0.515625 8.65625 -3.484375 C 5.664062 -6.460938 4.171875 -10.703125 4.171875 -16.203125 C 4.171875 -21.960938 6.179688 -26.207031 10.203125 -28.9375 C 14.234375 -31.664062 20.304688 -33.175781 28.421875 -33.46875 L 37.84375 -33.765625 L 37.84375 -36.140625 C 37.84375 -41.640625 35.023438 -44.390625 29.390625 -44.390625 C 25.054688 -44.390625 19.960938 -43.078125 14.109375 -40.453125 L 9.21875 -50.453125 C 15.457031 -53.710938 22.378906 -55.34375 29.984375 -55.34375 C 37.253906 -55.34375 42.828125 -53.757812 46.703125 -50.59375 C 50.585938 -47.425781 52.53125 -42.609375 52.53125 -36.140625 L 52.53125 0 Z M 37.84375 -25.125 L 32.109375 -24.9375 C 27.804688 -24.800781 24.601562 -24.019531 22.5 -22.59375 C 20.40625 -21.175781 19.359375 -19.015625 19.359375 -16.109375 C 19.359375 -11.929688 21.75 -9.84375 26.53125 -9.84375 C 29.957031 -9.84375 32.695312 -10.828125 34.75 -12.796875 C 36.8125 -14.773438 37.84375 -17.398438 37.84375 -20.671875 Z M 37.84375 -25.125 "/></g></g></g><g fill="#54c5bb" fill-opacity="1"><g transform="translate(614.2446, 384.570069)"><g><path d="M 56.3125 0 L 41.515625 0 L 41.515625 -31.671875 C 41.515625 -35.585938 40.859375 -38.523438 39.546875 -40.484375 C 38.242188 -42.441406 36.1875 -43.421875 33.375 -43.421875 C 29.59375 -43.421875 26.84375 -42.03125 25.125 -39.25 C 23.414062 -36.46875 22.5625 -31.890625 22.5625 -25.515625 L 22.5625 0 L 7.765625 0 L 7.765625 -54.234375 L 19.0625 -54.234375 L 21.046875 -47.296875 L 21.875 -47.296875 C 23.332031 -49.785156 25.4375 -51.734375 28.1875 -53.140625 C 30.9375 -54.546875 34.085938 -55.25 37.640625 -55.25 C 45.753906 -55.25 51.253906 -52.597656 54.140625 -47.296875 L 55.4375 -47.296875 C 56.894531 -49.816406 59.035156 -51.769531 61.859375 -53.15625 C 64.691406 -54.550781 67.890625 -55.25 71.453125 -55.25 C 77.597656 -55.25 82.242188 -53.671875 85.390625 -50.515625 C 88.546875 -47.367188 90.125 -42.316406 90.125 -35.359375 L 90.125 0 L 75.28125 0 L 75.28125 -31.671875 C 75.28125 -35.585938 74.625 -38.523438 73.3125 -40.484375 C 72.007812 -42.441406 69.953125 -43.421875 67.140625 -43.421875 C 63.515625 -43.421875 60.800781 -42.125 59 -39.53125 C 57.207031 -36.945312 56.3125 -32.84375 56.3125 -27.21875 Z M 56.3125 0 "/></g></g></g><g fill="#54c5bb" fill-opacity="1"><g transform="translate(711.787062, 384.570069)"><g><path d="M 30.21875 -44.71875 C 27.082031 -44.71875 24.625 -43.722656 22.84375 -41.734375 C 21.0625 -39.742188 20.046875 -36.925781 19.796875 -33.28125 L 40.546875 -33.28125 C 40.484375 -36.925781 39.53125 -39.742188 37.6875 -41.734375 C 35.84375 -43.722656 33.351562 -44.71875 30.21875 -44.71875 Z M 32.3125 0.96875 C 23.570312 0.96875 16.742188 -1.4375 11.828125 -6.25 C 6.921875 -11.070312 4.46875 -17.898438 4.46875 -26.734375 C 4.46875 -35.816406 6.738281 -42.835938 11.28125 -47.796875 C 15.820312 -52.765625 22.101562 -55.25 30.125 -55.25 C 37.789062 -55.25 43.753906 -53.066406 48.015625 -48.703125 C 52.285156 -44.335938 54.421875 -38.304688 54.421875 -30.609375 L 54.421875 -23.421875 L 19.453125 -23.421875 C 19.609375 -19.222656 20.847656 -15.941406 23.171875 -13.578125 C 25.503906 -11.222656 28.773438 -10.046875 32.984375 -10.046875 C 36.253906 -10.046875 39.34375 -10.382812 42.25 -11.0625 C 45.15625 -11.738281 48.195312 -12.820312 51.375 -14.3125 L 51.375 -2.859375 C 48.78125 -1.566406 46.007812 -0.609375 43.0625 0.015625 C 40.125 0.648438 36.539062 0.96875 32.3125 0.96875 Z M 32.3125 0.96875 "/></g></g></g><g fill="#54c5bb" fill-opacity="1"><g transform="translate(770.477463, 384.570069)"><g><path d="M 45.59375 -16.109375 C 45.59375 -10.546875 43.660156 -6.304688 39.796875 -3.390625 C 35.929688 -0.484375 30.148438 0.96875 22.453125 0.96875 C 18.515625 0.96875 15.15625 0.703125 12.375 0.171875 C 9.59375 -0.359375 6.988281 -1.144531 4.5625 -2.1875 L 4.5625 -14.40625 C 7.3125 -13.113281 10.40625 -12.03125 13.84375 -11.15625 C 17.289062 -10.28125 20.320312 -9.84375 22.9375 -9.84375 C 28.3125 -9.84375 31 -11.394531 31 -14.5 C 31 -15.664062 30.640625 -16.613281 29.921875 -17.34375 C 29.210938 -18.070312 27.984375 -18.894531 26.234375 -19.8125 C 24.492188 -20.738281 22.164062 -21.816406 19.25 -23.046875 C 15.082031 -24.785156 12.019531 -26.398438 10.0625 -27.890625 C 8.101562 -29.378906 6.679688 -31.082031 5.796875 -33 C 4.910156 -34.925781 4.46875 -37.296875 4.46875 -40.109375 C 4.46875 -44.929688 6.332031 -48.660156 10.0625 -51.296875 C 13.800781 -53.929688 19.097656 -55.25 25.953125 -55.25 C 32.484375 -55.25 38.835938 -53.828125 45.015625 -50.984375 L 40.546875 -40.3125 C 37.835938 -41.476562 35.300781 -42.429688 32.9375 -43.171875 C 30.570312 -43.910156 28.160156 -44.28125 25.703125 -44.28125 C 21.335938 -44.28125 19.15625 -43.101562 19.15625 -40.75 C 19.15625 -39.414062 19.859375 -38.265625 21.265625 -37.296875 C 22.671875 -36.328125 25.753906 -34.890625 30.515625 -32.984375 C 34.742188 -31.273438 37.84375 -29.675781 39.8125 -28.1875 C 41.789062 -26.695312 43.25 -24.976562 44.1875 -23.03125 C 45.125 -21.09375 45.59375 -18.785156 45.59375 -16.109375 Z M 45.59375 -16.109375 "/></g></g></g><g fill="#54c5bb" fill-opacity="1"><g transform="translate(819.854985, 384.570069)"><g/></g></g><g fill="#54c5bb" fill-opacity="1"><g transform="translate(845.659377, 384.570069)"><g><path d="M 38.953125 0 L 21.875 -55.640625 L 21.4375 -55.640625 C 22.050781 -44.316406 22.359375 -36.765625 22.359375 -32.984375 L 22.359375 0 L 8.921875 0 L 8.921875 -70.921875 L 29.390625 -70.921875 L 46.171875 -16.6875 L 46.46875 -16.6875 L 64.265625 -70.921875 L 84.75 -70.921875 L 84.75 0 L 70.71875 0 L 70.71875 -33.5625 C 70.71875 -35.144531 70.742188 -36.972656 70.796875 -39.046875 C 70.847656 -41.117188 71.066406 -46.617188 71.453125 -55.546875 L 71.015625 -55.546875 L 52.734375 0 Z M 38.953125 0 "/></g></g></g><g fill="#54c5bb" fill-opacity="1"><g transform="translate(939.32146, 384.570069)"><g><path d="M 7.125 -68.25 C 7.125 -73.070312 9.8125 -75.484375 15.1875 -75.484375 C 20.550781 -75.484375 23.234375 -73.070312 23.234375 -68.25 C 23.234375 -65.957031 22.5625 -64.171875 21.21875 -62.890625 C 19.875 -61.609375 17.863281 -60.96875 15.1875 -60.96875 C 9.8125 -60.96875 7.125 -63.394531 7.125 -68.25 Z M 22.5625 0 L 7.765625 0 L 7.765625 -54.234375 L 22.5625 -54.234375 Z M 22.5625 0 "/></g></g></g><g fill="#54c5bb" fill-opacity="1"><g transform="translate(969.636738, 384.570069)"><g><path d="M 22.5625 0 L 7.765625 0 L 7.765625 -75.484375 L 22.5625 -75.484375 Z M 22.5625 0 "/></g></g></g><g fill="#54c5bb" fill-opacity="1"><g transform="translate(999.952016, 384.570069)"><g><path d="M 22.5625 0 L 7.765625 0 L 7.765625 -75.484375 L 22.5625 -75.484375 Z M 22.5625 0 "/></g></g></g><g fill="#54c5bb" fill-opacity="1"><g transform="translate(1030.267294, 384.570069)"><g><path d="M 30.21875 -44.71875 C 27.082031 -44.71875 24.625 -43.722656 22.84375 -41.734375 C 21.0625 -39.742188 20.046875 -36.925781 19.796875 -33.28125 L 40.546875 -33.28125 C 40.484375 -36.925781 39.53125 -39.742188 37.6875 -41.734375 C 35.84375 -43.722656 33.351562 -44.71875 30.21875 -44.71875 Z M 32.3125 0.96875 C 23.570312 0.96875 16.742188 -1.4375 11.828125 -6.25 C 6.921875 -11.070312 4.46875 -17.898438 4.46875 -26.734375 C 4.46875 -35.816406 6.738281 -42.835938 11.28125 -47.796875 C 15.820312 -52.765625 22.101562 -55.25 30.125 -55.25 C 37.789062 -55.25 43.753906 -53.066406 48.015625 -48.703125 C 52.285156 -44.335938 54.421875 -38.304688 54.421875 -30.609375 L 54.421875 -23.421875 L 19.453125 -23.421875 C 19.609375 -19.222656 20.847656 -15.941406 23.171875 -13.578125 C 25.503906 -11.222656 28.773438 -10.046875 32.984375 -10.046875 C 36.253906 -10.046875 39.34375 -10.382812 42.25 -11.0625 C 45.15625 -11.738281 48.195312 -12.820312 51.375 -14.3125 L 51.375 -2.859375 C 48.78125 -1.566406 46.007812 -0.609375 43.0625 0.015625 C 40.125 0.648438 36.539062 0.96875 32.3125 0.96875 Z M 32.3125 0.96875 "/></g></g></g><g fill="#54c5bb" fill-opacity="1"><g transform="translate(1088.957671, 384.570069)"><g><path d="M 38.03125 -55.25 C 40.03125 -55.25 41.695312 -55.101562 43.03125 -54.8125 L 41.90625 -40.9375 C 40.707031 -41.257812 39.253906 -41.421875 37.546875 -41.421875 C 32.828125 -41.421875 29.148438 -40.207031 26.515625 -37.78125 C 23.878906 -35.363281 22.5625 -31.96875 22.5625 -27.59375 L 22.5625 0 L 7.765625 0 L 7.765625 -54.234375 L 18.96875 -54.234375 L 21.15625 -45.109375 L 21.875 -45.109375 C 23.5625 -48.148438 25.832031 -50.597656 28.6875 -52.453125 C 31.550781 -54.316406 34.664062 -55.25 38.03125 -55.25 Z M 38.03125 -55.25 "/></g></g></g><g fill="#54c5bb" fill-opacity="1"><g transform="translate(1134.073292, 384.570069)"><g/></g></g></svg>